%FSLAX46Y46*%
%MOMM*%
%ADD10C,0.010000*%
%ADD11C,0.180000*%
G01*
%LPD*%
G01*
%LPD*%
D10*
X0Y28500000D02*
X0Y-28500000D01*
D10*
X3499999Y-32000000D02*
X90500000Y-32000000D01*
D10*
X94000000Y-28500000D02*
X94000000Y28500000D01*
D10*
X90500000Y32000000D02*
X3499999Y32000000D01*
D11*
X71428Y-38714284D02*
X642857Y-37214284D01*
D11*
X1214285Y-38714284D02*
X642857Y-37214284D01*
D11*
X1000000Y-38214284D02*
X285714Y-38214284D01*
D11*
X1571428Y-38714284D02*
X1571428Y-37714284D01*
D11*
X1785714Y-37785716D02*
X1571428Y-38000000D01*
D11*
X1928571Y-37714284D02*
X1785714Y-37785716D01*
D11*
X2142857Y-37714284D02*
X1928571Y-37714284D01*
D11*
X2285714Y-37785716D02*
X2142857Y-37714284D01*
D11*
X2357142Y-38000000D02*
X2285714Y-37785716D01*
D11*
X2357142Y-38714284D02*
X2357142Y-38000000D01*
D11*
X2571428Y-37785716D02*
X2357142Y-38000000D01*
D11*
X2714285Y-37714284D02*
X2571428Y-37785716D01*
D11*
X2928571Y-37714284D02*
X2714285Y-37714284D01*
D11*
X3071428Y-37785716D02*
X2928571Y-37714284D01*
D11*
X3142857Y-38000000D02*
X3071428Y-37785716D01*
D11*
X3142857Y-38714284D02*
X3142857Y-38000000D01*
D11*
X3714285Y-38714284D02*
X3714285Y-37214284D01*
D11*
X3857142Y-37785716D02*
X3714285Y-37928572D01*
D11*
X4000000Y-37714284D02*
X3857142Y-37785716D01*
D11*
X4214285Y-37714284D02*
X4000000Y-37714284D01*
D11*
X4357143Y-37785716D02*
X4214285Y-37714284D01*
D11*
X4500000Y-37928572D02*
X4357143Y-37785716D01*
D11*
X4571428Y-38142856D02*
X4500000Y-37928572D01*
D11*
X4571428Y-38285716D02*
X4571428Y-38142856D01*
D11*
X4500000Y-38500000D02*
X4571428Y-38285716D01*
D11*
X4357143Y-38642856D02*
X4500000Y-38500000D01*
D11*
X4214285Y-38714284D02*
X4357143Y-38642856D01*
D11*
X4000000Y-38714284D02*
X4214285Y-38714284D01*
D11*
X3857142Y-38642856D02*
X4000000Y-38714284D01*
D11*
X3714285Y-38500000D02*
X3857142Y-38642856D01*
D11*
X5857143Y-38142856D02*
X5000000Y-38142856D01*
D11*
X5857143Y-38000000D02*
X5857143Y-38142856D01*
D11*
X5785714Y-37857144D02*
X5857143Y-38000000D01*
D11*
X5714285Y-37785716D02*
X5785714Y-37857144D01*
D11*
X5571428Y-37714284D02*
X5714285Y-37785716D01*
D11*
X5357143Y-37714284D02*
X5571428Y-37714284D01*
D11*
X5214285Y-37785716D02*
X5357143Y-37714284D01*
D11*
X5071428Y-37928572D02*
X5214285Y-37785716D01*
D11*
X5000000Y-38142856D02*
X5071428Y-37928572D01*
D11*
X5000000Y-38285716D02*
X5000000Y-38142856D01*
D11*
X5071428Y-38500000D02*
X5000000Y-38285716D01*
D11*
X5214285Y-38642856D02*
X5071428Y-38500000D01*
D11*
X5357143Y-38714284D02*
X5214285Y-38642856D01*
D11*
X5571428Y-38714284D02*
X5357143Y-38714284D01*
D11*
X5714285Y-38642856D02*
X5571428Y-38714284D01*
D11*
X5857143Y-38500000D02*
X5714285Y-38642856D01*
D11*
X6357143Y-38714284D02*
X6357143Y-37714284D01*
D11*
X6428571Y-37928572D02*
X6357143Y-38142856D01*
D11*
X6571428Y-37785716D02*
X6428571Y-37928572D01*
D11*
X6714285Y-37714284D02*
X6571428Y-37785716D01*
D11*
X6928571Y-37714284D02*
X6714285Y-37714284D01*
D11*
X7857142Y-38714284D02*
X7857142Y-37214284D01*
D11*
X8500000Y-37214284D02*
X7857142Y-37214284D01*
D11*
X8714286Y-37285716D02*
X8500000Y-37214284D01*
D11*
X8785714Y-37357144D02*
X8714286Y-37285716D01*
D11*
X8857143Y-37500000D02*
X8785714Y-37357144D01*
D11*
X8857143Y-37642856D02*
X8857143Y-37500000D01*
D11*
X8785714Y-37785716D02*
X8857143Y-37642856D01*
D11*
X8714286Y-37857144D02*
X8785714Y-37785716D01*
D11*
X8500000Y-37928572D02*
X8714286Y-37857144D01*
D11*
X7857142Y-37928572D02*
X8500000Y-37928572D01*
D11*
X8857143Y-38714284D02*
X8357142Y-37928572D01*
D11*
X9642857Y-37428572D02*
X9500000Y-37500000D01*
D11*
X9857143Y-37214284D02*
X9642857Y-37428572D01*
D11*
X9857143Y-38714284D02*
X9857143Y-37214284D01*
D11*
X1571428Y-40276428D02*
X285714Y-40276428D01*
D11*
X2714285Y-40919284D02*
X2714285Y-39419284D01*
D11*
X3214285Y-39419284D02*
X2714285Y-39419284D01*
D11*
X3428571Y-39490716D02*
X3214285Y-39419284D01*
D11*
X3571428Y-39633572D02*
X3428571Y-39490716D01*
D11*
X3642857Y-39776428D02*
X3571428Y-39633572D01*
D11*
X3714285Y-39990716D02*
X3642857Y-39776428D01*
D11*
X3714285Y-40347856D02*
X3714285Y-39990716D01*
D11*
X3642857Y-40562144D02*
X3714285Y-40347856D01*
D11*
X3571428Y-40705000D02*
X3642857Y-40562144D01*
D11*
X3428571Y-40847856D02*
X3571428Y-40705000D01*
D11*
X3214285Y-40919284D02*
X3428571Y-40847856D01*
D11*
X2714285Y-40919284D02*
X3214285Y-40919284D01*
D11*
X4214285Y-39490716D02*
X4142857Y-39419284D01*
D11*
X4285714Y-39419284D02*
X4214285Y-39490716D01*
D11*
X4214285Y-39347856D02*
X4285714Y-39419284D01*
D11*
X4142857Y-39419284D02*
X4214285Y-39347856D01*
D11*
X4214285Y-40919284D02*
X4214285Y-39919284D01*
D11*
X4928571Y-39990716D02*
X5071428Y-39919284D01*
D11*
X4785714Y-40133572D02*
X4928571Y-39990716D01*
D11*
X4714285Y-40347856D02*
X4785714Y-40133572D01*
D11*
X4714285Y-40490716D02*
X4714285Y-40347856D01*
D11*
X4785714Y-40705000D02*
X4714285Y-40490716D01*
D11*
X4928571Y-40847856D02*
X4785714Y-40705000D01*
D11*
X5071428Y-40919284D02*
X4928571Y-40847856D01*
D11*
X5285714Y-40919284D02*
X5071428Y-40919284D01*
D11*
X5428571Y-40847856D02*
X5285714Y-40919284D01*
D11*
X5571428Y-40705000D02*
X5428571Y-40847856D01*
D11*
X5642857Y-40490716D02*
X5571428Y-40705000D01*
D11*
X5642857Y-40347856D02*
X5642857Y-40490716D01*
D11*
X5571428Y-40133572D02*
X5642857Y-40347856D01*
D11*
X5428571Y-39990716D02*
X5571428Y-40133572D01*
D11*
X5285714Y-39919284D02*
X5428571Y-39990716D01*
D11*
X5071428Y-39919284D02*
X5285714Y-39919284D01*
D11*
X6928571Y-40919284D02*
X6928571Y-39419284D01*
D11*
X6785714Y-39990716D02*
X6928571Y-40133572D01*
D11*
X6642857Y-39919284D02*
X6785714Y-39990716D01*
D11*
X6428571Y-39919284D02*
X6642857Y-39919284D01*
D11*
X6285714Y-39990716D02*
X6428571Y-39919284D01*
D11*
X6142857Y-40133572D02*
X6285714Y-39990716D01*
D11*
X6071428Y-40347856D02*
X6142857Y-40133572D01*
D11*
X6071428Y-40490716D02*
X6071428Y-40347856D01*
D11*
X6142857Y-40705000D02*
X6071428Y-40490716D01*
D11*
X6285714Y-40847856D02*
X6142857Y-40705000D01*
D11*
X6428571Y-40919284D02*
X6285714Y-40847856D01*
D11*
X6642857Y-40919284D02*
X6428571Y-40919284D01*
D11*
X6785714Y-40847856D02*
X6642857Y-40919284D01*
D11*
X6928571Y-40705000D02*
X6785714Y-40847856D01*
D11*
X8285714Y-40347856D02*
X7428571Y-40347856D01*
D11*
X8285714Y-40205000D02*
X8285714Y-40347856D01*
D11*
X8214285Y-40062144D02*
X8285714Y-40205000D01*
D11*
X8142857Y-39990716D02*
X8214285Y-40062144D01*
D11*
X8000000Y-39919284D02*
X8142857Y-39990716D01*
D11*
X7785714Y-39919284D02*
X8000000Y-39919284D01*
D11*
X7642857Y-39990716D02*
X7785714Y-39919284D01*
D11*
X7500000Y-40133572D02*
X7642857Y-39990716D01*
D11*
X7428571Y-40347856D02*
X7500000Y-40133572D01*
D11*
X7428571Y-40490716D02*
X7428571Y-40347856D01*
D11*
X7500000Y-40705000D02*
X7428571Y-40490716D01*
D11*
X7642857Y-40847856D02*
X7500000Y-40705000D01*
D11*
X7785714Y-40919284D02*
X7642857Y-40847856D01*
D11*
X8000000Y-40919284D02*
X7785714Y-40919284D01*
D11*
X8142857Y-40847856D02*
X8000000Y-40919284D01*
D11*
X8285714Y-40705000D02*
X8142857Y-40847856D01*
D11*
X9428571Y-39990716D02*
X9500000Y-40133572D01*
D11*
X9214286Y-39919284D02*
X9428571Y-39990716D01*
D11*
X9000000Y-39919284D02*
X9214286Y-39919284D01*
D11*
X8785714Y-39990716D02*
X9000000Y-39919284D01*
D11*
X8714286Y-40133572D02*
X8785714Y-39990716D01*
D11*
X8785714Y-40276428D02*
X8714286Y-40133572D01*
D11*
X8928571Y-40347856D02*
X8785714Y-40276428D01*
D11*
X9285714Y-40419284D02*
X8928571Y-40347856D01*
D11*
X9428571Y-40490716D02*
X9285714Y-40419284D01*
D11*
X9500000Y-40633572D02*
X9428571Y-40490716D01*
D11*
X9500000Y-40705000D02*
X9500000Y-40633572D01*
D11*
X9428571Y-40847856D02*
X9500000Y-40705000D01*
D11*
X9214286Y-40919284D02*
X9428571Y-40847856D01*
D11*
X9000000Y-40919284D02*
X9214286Y-40919284D01*
D11*
X8785714Y-40847856D02*
X9000000Y-40919284D01*
D11*
X8714286Y-40705000D02*
X8785714Y-40847856D01*
D11*
X10000000Y-39990716D02*
X10071428Y-39919284D01*
D11*
X10071428Y-40062144D02*
X10000000Y-39990716D01*
D11*
X10142857Y-39990716D02*
X10071428Y-40062144D01*
D11*
X10071428Y-39919284D02*
X10142857Y-39990716D01*
D11*
X10000000Y-40847856D02*
X10071428Y-40776428D01*
D11*
X10071428Y-40919284D02*
X10000000Y-40847856D01*
D11*
X10142857Y-40847856D02*
X10071428Y-40919284D01*
D11*
X10071428Y-40776428D02*
X10142857Y-40847856D01*
D11*
X11928571Y-39990716D02*
X12000000Y-40133572D01*
D11*
X11714286Y-39919284D02*
X11928571Y-39990716D01*
D11*
X11500000Y-39919284D02*
X11714286Y-39919284D01*
D11*
X11285714Y-39990716D02*
X11500000Y-39919284D01*
D11*
X11214286Y-40133572D02*
X11285714Y-39990716D01*
D11*
X11285714Y-40276428D02*
X11214286Y-40133572D01*
D11*
X11428571Y-40347856D02*
X11285714Y-40276428D01*
D11*
X11785714Y-40419284D02*
X11428571Y-40347856D01*
D11*
X11928571Y-40490716D02*
X11785714Y-40419284D01*
D11*
X12000000Y-40633572D02*
X11928571Y-40490716D01*
D11*
X12000000Y-40705000D02*
X12000000Y-40633572D01*
D11*
X11928571Y-40847856D02*
X12000000Y-40705000D01*
D11*
X11714286Y-40919284D02*
X11928571Y-40847856D01*
D11*
X11500000Y-40919284D02*
X11714286Y-40919284D01*
D11*
X11285714Y-40847856D02*
X11500000Y-40919284D01*
D11*
X11214286Y-40705000D02*
X11285714Y-40847856D01*
D11*
X12500000Y-39490716D02*
X12428571Y-39419284D01*
D11*
X12571428Y-39419284D02*
X12500000Y-39490716D01*
D11*
X12500000Y-39347856D02*
X12571428Y-39419284D01*
D11*
X12428571Y-39419284D02*
X12500000Y-39347856D01*
D11*
X12500000Y-40919284D02*
X12500000Y-39919284D01*
D11*
X13071428Y-40919284D02*
X13071428Y-39419284D01*
D11*
X13642857Y-40919284D02*
X13642857Y-39419284D01*
D11*
X13642857Y-40633572D02*
X14357143Y-39919284D01*
D11*
X14428571Y-40919284D02*
X13928571Y-40347856D01*
D11*
X15500000Y-39990716D02*
X15571428Y-40133572D01*
D11*
X15285714Y-39919284D02*
X15500000Y-39990716D01*
D11*
X15071428Y-39919284D02*
X15285714Y-39919284D01*
D11*
X14857143Y-39990716D02*
X15071428Y-39919284D01*
D11*
X14785714Y-40133572D02*
X14857143Y-39990716D01*
D11*
X14857143Y-40276428D02*
X14785714Y-40133572D01*
D11*
X15000000Y-40347856D02*
X14857143Y-40276428D01*
D11*
X15357143Y-40419284D02*
X15000000Y-40347856D01*
D11*
X15500000Y-40490716D02*
X15357143Y-40419284D01*
D11*
X15571428Y-40633572D02*
X15500000Y-40490716D01*
D11*
X15571428Y-40705000D02*
X15571428Y-40633572D01*
D11*
X15500000Y-40847856D02*
X15571428Y-40705000D01*
D11*
X15285714Y-40919284D02*
X15500000Y-40847856D01*
D11*
X15071428Y-40919284D02*
X15285714Y-40919284D01*
D11*
X14857143Y-40847856D02*
X15071428Y-40919284D01*
D11*
X14785714Y-40705000D02*
X14857143Y-40847856D01*
D11*
X16714285Y-39990716D02*
X16857142Y-40133572D01*
D11*
X16571428Y-39919284D02*
X16714285Y-39990716D01*
D11*
X16357143Y-39919284D02*
X16571428Y-39919284D01*
D11*
X16214285Y-39990716D02*
X16357143Y-39919284D01*
D11*
X16071428Y-40133572D02*
X16214285Y-39990716D01*
D11*
X16000000Y-40347856D02*
X16071428Y-40133572D01*
D11*
X16000000Y-40490716D02*
X16000000Y-40347856D01*
D11*
X16071428Y-40705000D02*
X16000000Y-40490716D01*
D11*
X16214285Y-40847856D02*
X16071428Y-40705000D01*
D11*
X16357143Y-40919284D02*
X16214285Y-40847856D01*
D11*
X16571428Y-40919284D02*
X16357143Y-40919284D01*
D11*
X16714285Y-40847856D02*
X16571428Y-40919284D01*
D11*
X16857142Y-40705000D02*
X16714285Y-40847856D01*
D11*
X17357142Y-40919284D02*
X17357142Y-39919284D01*
D11*
X17428572Y-40133572D02*
X17357142Y-40347856D01*
D11*
X17571428Y-39990716D02*
X17428572Y-40133572D01*
D11*
X17714286Y-39919284D02*
X17571428Y-39990716D01*
D11*
X17928572Y-39919284D02*
X17714286Y-39919284D01*
D11*
X19071428Y-40347856D02*
X18214286Y-40347856D01*
D11*
X19071428Y-40205000D02*
X19071428Y-40347856D01*
D11*
X19000000Y-40062144D02*
X19071428Y-40205000D01*
D11*
X18928572Y-39990716D02*
X19000000Y-40062144D01*
D11*
X18785714Y-39919284D02*
X18928572Y-39990716D01*
D11*
X18571428Y-39919284D02*
X18785714Y-39919284D01*
D11*
X18428572Y-39990716D02*
X18571428Y-39919284D01*
D11*
X18285714Y-40133572D02*
X18428572Y-39990716D01*
D11*
X18214286Y-40347856D02*
X18285714Y-40133572D01*
D11*
X18214286Y-40490716D02*
X18214286Y-40347856D01*
D11*
X18285714Y-40705000D02*
X18214286Y-40490716D01*
D11*
X18428572Y-40847856D02*
X18285714Y-40705000D01*
D11*
X18571428Y-40919284D02*
X18428572Y-40847856D01*
D11*
X18785714Y-40919284D02*
X18571428Y-40919284D01*
D11*
X18928572Y-40847856D02*
X18785714Y-40919284D01*
D11*
X19071428Y-40705000D02*
X18928572Y-40847856D01*
D11*
X20357142Y-40347856D02*
X19500000Y-40347856D01*
D11*
X20357142Y-40205000D02*
X20357142Y-40347856D01*
D11*
X20285714Y-40062144D02*
X20357142Y-40205000D01*
D11*
X20214286Y-39990716D02*
X20285714Y-40062144D01*
D11*
X20071428Y-39919284D02*
X20214286Y-39990716D01*
D11*
X19857142Y-39919284D02*
X20071428Y-39919284D01*
D11*
X19714286Y-39990716D02*
X19857142Y-39919284D01*
D11*
X19571428Y-40133572D02*
X19714286Y-39990716D01*
D11*
X19500000Y-40347856D02*
X19571428Y-40133572D01*
D11*
X19500000Y-40490716D02*
X19500000Y-40347856D01*
D11*
X19571428Y-40705000D02*
X19500000Y-40490716D01*
D11*
X19714286Y-40847856D02*
X19571428Y-40705000D01*
D11*
X19857142Y-40919284D02*
X19714286Y-40847856D01*
D11*
X20071428Y-40919284D02*
X19857142Y-40919284D01*
D11*
X20214286Y-40847856D02*
X20071428Y-40919284D01*
D11*
X20357142Y-40705000D02*
X20214286Y-40847856D01*
D11*
X20857142Y-40919284D02*
X20857142Y-39919284D01*
D11*
X21071428Y-39990716D02*
X20857142Y-40205000D01*
D11*
X21214286Y-39919284D02*
X21071428Y-39990716D01*
D11*
X21428572Y-39919284D02*
X21214286Y-39919284D01*
D11*
X21571428Y-39990716D02*
X21428572Y-39919284D01*
D11*
X21642856Y-40205000D02*
X21571428Y-39990716D01*
D11*
X21642856Y-40919284D02*
X21642856Y-40205000D01*
D11*
X22785714Y-40919284D02*
X22785714Y-39919284D01*
D11*
X23000000Y-39990716D02*
X22785714Y-40205000D01*
D11*
X23142856Y-39919284D02*
X23000000Y-39990716D01*
D11*
X23357142Y-39919284D02*
X23142856Y-39919284D01*
D11*
X23500000Y-39990716D02*
X23357142Y-39919284D01*
D11*
X23571428Y-40205000D02*
X23500000Y-39990716D01*
D11*
X23571428Y-40919284D02*
X23571428Y-40205000D01*
D11*
X23785714Y-39990716D02*
X23571428Y-40205000D01*
D11*
X23928572Y-39919284D02*
X23785714Y-39990716D01*
D11*
X24142856Y-39919284D02*
X23928572Y-39919284D01*
D11*
X24285714Y-39990716D02*
X24142856Y-39919284D01*
D11*
X24357142Y-40205000D02*
X24285714Y-39990716D01*
D11*
X24357142Y-40919284D02*
X24357142Y-40205000D01*
D11*
X25714286Y-40919284D02*
X25714286Y-39919284D01*
D11*
X25571428Y-39990716D02*
X25714286Y-40133572D01*
D11*
X25428572Y-39919284D02*
X25571428Y-39990716D01*
D11*
X25214286Y-39919284D02*
X25428572Y-39919284D01*
D11*
X25071428Y-39990716D02*
X25214286Y-39919284D01*
D11*
X24928572Y-40133572D02*
X25071428Y-39990716D01*
D11*
X24857142Y-40347856D02*
X24928572Y-40133572D01*
D11*
X24857142Y-40490716D02*
X24857142Y-40347856D01*
D11*
X24928572Y-40705000D02*
X24857142Y-40490716D01*
D11*
X25071428Y-40847856D02*
X24928572Y-40705000D01*
D11*
X25214286Y-40919284D02*
X25071428Y-40847856D01*
D11*
X25428572Y-40919284D02*
X25214286Y-40919284D01*
D11*
X25571428Y-40847856D02*
X25428572Y-40919284D01*
D11*
X25714286Y-40705000D02*
X25571428Y-40847856D01*
D11*
X26285714Y-40919284D02*
X26285714Y-39919284D01*
D11*
X26357142Y-40133572D02*
X26285714Y-40347856D01*
D11*
X26500000Y-39990716D02*
X26357142Y-40133572D01*
D11*
X26642856Y-39919284D02*
X26500000Y-39990716D01*
D11*
X26857142Y-39919284D02*
X26642856Y-39919284D01*
D11*
X27214286Y-40919284D02*
X27214286Y-39419284D01*
D11*
X27214286Y-40633572D02*
X27928570Y-39919284D01*
D11*
X28000000Y-40919284D02*
X27500000Y-40347856D01*
D11*
X29071428Y-39990716D02*
X29142856Y-40133572D01*
D11*
X28857142Y-39919284D02*
X29071428Y-39990716D01*
D11*
X28642856Y-39919284D02*
X28857142Y-39919284D01*
D11*
X28428570Y-39990716D02*
X28642856Y-39919284D01*
D11*
X28357142Y-40133572D02*
X28428570Y-39990716D01*
D11*
X28428570Y-40276428D02*
X28357142Y-40133572D01*
D11*
X28571428Y-40347856D02*
X28428570Y-40276428D01*
D11*
X28928570Y-40419284D02*
X28571428Y-40347856D01*
D11*
X29071428Y-40490716D02*
X28928570Y-40419284D01*
D11*
X29142856Y-40633572D02*
X29071428Y-40490716D01*
D11*
X29142856Y-40705000D02*
X29142856Y-40633572D01*
D11*
X29071428Y-40847856D02*
X29142856Y-40705000D01*
D11*
X28857142Y-40919284D02*
X29071428Y-40847856D01*
D11*
X28642856Y-40919284D02*
X28857142Y-40919284D01*
D11*
X28428570Y-40847856D02*
X28642856Y-40919284D01*
D11*
X28357142Y-40705000D02*
X28428570Y-40847856D01*
D11*
X30857142Y-39990716D02*
X31000000Y-40133572D01*
D11*
X30714286Y-39919284D02*
X30857142Y-39990716D01*
D11*
X30500000Y-39919284D02*
X30714286Y-39919284D01*
D11*
X30357142Y-39990716D02*
X30500000Y-39919284D01*
D11*
X30214286Y-40133572D02*
X30357142Y-39990716D01*
D11*
X30142856Y-40347856D02*
X30214286Y-40133572D01*
D11*
X30142856Y-40490716D02*
X30142856Y-40347856D01*
D11*
X30214286Y-40705000D02*
X30142856Y-40490716D01*
D11*
X30357142Y-40847856D02*
X30214286Y-40705000D01*
D11*
X30500000Y-40919284D02*
X30357142Y-40847856D01*
D11*
X30714286Y-40919284D02*
X30500000Y-40919284D01*
D11*
X30857142Y-40847856D02*
X30714286Y-40919284D01*
D11*
X31000000Y-40705000D02*
X30857142Y-40847856D01*
D11*
X32285714Y-40919284D02*
X32285714Y-39919284D01*
D11*
X32142856Y-39990716D02*
X32285714Y-40133572D01*
D11*
X32000000Y-39919284D02*
X32142856Y-39990716D01*
D11*
X31785714Y-39919284D02*
X32000000Y-39919284D01*
D11*
X31642856Y-39990716D02*
X31785714Y-39919284D01*
D11*
X31500000Y-40133572D02*
X31642856Y-39990716D01*
D11*
X31428570Y-40347856D02*
X31500000Y-40133572D01*
D11*
X31428570Y-40490716D02*
X31428570Y-40347856D01*
D11*
X31500000Y-40705000D02*
X31428570Y-40490716D01*
D11*
X31642856Y-40847856D02*
X31500000Y-40705000D01*
D11*
X31785714Y-40919284D02*
X31642856Y-40847856D01*
D11*
X32000000Y-40919284D02*
X31785714Y-40919284D01*
D11*
X32142856Y-40847856D02*
X32000000Y-40919284D01*
D11*
X32285714Y-40705000D02*
X32142856Y-40847856D01*
D11*
X32928570Y-40633572D02*
X32928570Y-39419284D01*
D11*
X33000000Y-40847856D02*
X32928570Y-40633572D01*
D11*
X33142856Y-40919284D02*
X33000000Y-40847856D01*
D11*
X33285714Y-40919284D02*
X33142856Y-40919284D01*
D11*
X33214286Y-39919284D02*
X32714286Y-39919284D01*
D11*
X33714284Y-40919284D02*
X33714284Y-39419284D01*
D11*
X33928572Y-39990716D02*
X33714284Y-40205000D01*
D11*
X34071428Y-39919284D02*
X33928572Y-39990716D01*
D11*
X34285712Y-39919284D02*
X34071428Y-39919284D01*
D11*
X34428572Y-39990716D02*
X34285712Y-39919284D01*
D11*
X34500000Y-40205000D02*
X34428572Y-39990716D01*
D11*
X34500000Y-40919284D02*
X34500000Y-40205000D01*
D11*
X35214284Y-39990716D02*
X35357144Y-39919284D01*
D11*
X35071428Y-40133572D02*
X35214284Y-39990716D01*
D11*
X35000000Y-40347856D02*
X35071428Y-40133572D01*
D11*
X35000000Y-40490716D02*
X35000000Y-40347856D01*
D11*
X35071428Y-40705000D02*
X35000000Y-40490716D01*
D11*
X35214284Y-40847856D02*
X35071428Y-40705000D01*
D11*
X35357144Y-40919284D02*
X35214284Y-40847856D01*
D11*
X35571428Y-40919284D02*
X35357144Y-40919284D01*
D11*
X35714284Y-40847856D02*
X35571428Y-40919284D01*
D11*
X35857144Y-40705000D02*
X35714284Y-40847856D01*
D11*
X35928572Y-40490716D02*
X35857144Y-40705000D01*
D11*
X35928572Y-40347856D02*
X35928572Y-40490716D01*
D11*
X35857144Y-40133572D02*
X35928572Y-40347856D01*
D11*
X35714284Y-39990716D02*
X35857144Y-40133572D01*
D11*
X35571428Y-39919284D02*
X35714284Y-39990716D01*
D11*
X35357144Y-39919284D02*
X35571428Y-39919284D01*
D11*
X37214284Y-40919284D02*
X37214284Y-39419284D01*
D11*
X37071428Y-39990716D02*
X37214284Y-40133572D01*
D11*
X36928572Y-39919284D02*
X37071428Y-39990716D01*
D11*
X36714284Y-39919284D02*
X36928572Y-39919284D01*
D11*
X36571428Y-39990716D02*
X36714284Y-39919284D01*
D11*
X36428572Y-40133572D02*
X36571428Y-39990716D01*
D11*
X36357144Y-40347856D02*
X36428572Y-40133572D01*
D11*
X36357144Y-40490716D02*
X36357144Y-40347856D01*
D11*
X36428572Y-40705000D02*
X36357144Y-40490716D01*
D11*
X36571428Y-40847856D02*
X36428572Y-40705000D01*
D11*
X36714284Y-40919284D02*
X36571428Y-40847856D01*
D11*
X36928572Y-40919284D02*
X36714284Y-40919284D01*
D11*
X37071428Y-40847856D02*
X36928572Y-40919284D01*
D11*
X37214284Y-40705000D02*
X37071428Y-40847856D01*
D11*
X38571428Y-40347856D02*
X37714284Y-40347856D01*
D11*
X38571428Y-40205000D02*
X38571428Y-40347856D01*
D11*
X38500000Y-40062144D02*
X38571428Y-40205000D01*
D11*
X38428572Y-39990716D02*
X38500000Y-40062144D01*
D11*
X38285712Y-39919284D02*
X38428572Y-39990716D01*
D11*
X38071428Y-39919284D02*
X38285712Y-39919284D01*
D11*
X37928572Y-39990716D02*
X38071428Y-39919284D01*
D11*
X37785712Y-40133572D02*
X37928572Y-39990716D01*
D11*
X37714284Y-40347856D02*
X37785712Y-40133572D01*
D11*
X37714284Y-40490716D02*
X37714284Y-40347856D01*
D11*
X37785712Y-40705000D02*
X37714284Y-40490716D01*
D11*
X37928572Y-40847856D02*
X37785712Y-40705000D01*
D11*
X38071428Y-40919284D02*
X37928572Y-40847856D01*
D11*
X38285712Y-40919284D02*
X38071428Y-40919284D01*
D11*
X38428572Y-40847856D02*
X38285712Y-40919284D01*
D11*
X38571428Y-40705000D02*
X38428572Y-40847856D01*
D11*
X1571428Y-42481428D02*
X285714Y-42481428D01*
D11*
X3642857Y-41838572D02*
X3714285Y-41981428D01*
D11*
X3500000Y-41695716D02*
X3642857Y-41838572D01*
D11*
X3357142Y-41624284D02*
X3500000Y-41695716D01*
D11*
X3071428Y-41624284D02*
X3357142Y-41624284D01*
D11*
X2928571Y-41695716D02*
X3071428Y-41624284D01*
D11*
X2785714Y-41838572D02*
X2928571Y-41695716D01*
D11*
X2714285Y-41981428D02*
X2785714Y-41838572D01*
D11*
X2642857Y-42195716D02*
X2714285Y-41981428D01*
D11*
X2642857Y-42552856D02*
X2642857Y-42195716D01*
D11*
X2714285Y-42767144D02*
X2642857Y-42552856D01*
D11*
X2785714Y-42910000D02*
X2714285Y-42767144D01*
D11*
X2928571Y-43052856D02*
X2785714Y-42910000D01*
D11*
X3071428Y-43124284D02*
X2928571Y-43052856D01*
D11*
X3357142Y-43124284D02*
X3071428Y-43124284D01*
D11*
X3500000Y-43052856D02*
X3357142Y-43124284D01*
D11*
X3642857Y-42910000D02*
X3500000Y-43052856D01*
D11*
X3714285Y-42767144D02*
X3642857Y-42910000D01*
D11*
X5000000Y-43124284D02*
X5000000Y-42124284D01*
D11*
X4857143Y-42195716D02*
X5000000Y-42338572D01*
D11*
X4714285Y-42124284D02*
X4857143Y-42195716D01*
D11*
X4500000Y-42124284D02*
X4714285Y-42124284D01*
D11*
X4357143Y-42195716D02*
X4500000Y-42124284D01*
D11*
X4214285Y-42338572D02*
X4357143Y-42195716D01*
D11*
X4142857Y-42552856D02*
X4214285Y-42338572D01*
D11*
X4142857Y-42695716D02*
X4142857Y-42552856D01*
D11*
X4214285Y-42910000D02*
X4142857Y-42695716D01*
D11*
X4357143Y-43052856D02*
X4214285Y-42910000D01*
D11*
X4500000Y-43124284D02*
X4357143Y-43052856D01*
D11*
X4714285Y-43124284D02*
X4500000Y-43124284D01*
D11*
X4857143Y-43052856D02*
X4714285Y-43124284D01*
D11*
X5000000Y-42910000D02*
X4857143Y-43052856D01*
D11*
X5571428Y-43624284D02*
X5571428Y-42124284D01*
D11*
X5714285Y-42195716D02*
X5571428Y-42338572D01*
D11*
X5857143Y-42124284D02*
X5714285Y-42195716D01*
D11*
X6071428Y-42124284D02*
X5857143Y-42124284D01*
D11*
X6214285Y-42195716D02*
X6071428Y-42124284D01*
D11*
X6357143Y-42338572D02*
X6214285Y-42195716D01*
D11*
X6428571Y-42552856D02*
X6357143Y-42338572D01*
D11*
X6428571Y-42695716D02*
X6428571Y-42552856D01*
D11*
X6357143Y-42910000D02*
X6428571Y-42695716D01*
D11*
X6214285Y-43052856D02*
X6357143Y-42910000D01*
D11*
X6071428Y-43124284D02*
X6214285Y-43052856D01*
D11*
X5857143Y-43124284D02*
X6071428Y-43124284D01*
D11*
X5714285Y-43052856D02*
X5857143Y-43124284D01*
D11*
X5571428Y-42910000D02*
X5714285Y-43052856D01*
D11*
X7714285Y-43124284D02*
X7714285Y-42124284D01*
D11*
X7571428Y-42195716D02*
X7714285Y-42338572D01*
D11*
X7428571Y-42124284D02*
X7571428Y-42195716D01*
D11*
X7214285Y-42124284D02*
X7428571Y-42124284D01*
D11*
X7071428Y-42195716D02*
X7214285Y-42124284D01*
D11*
X6928571Y-42338572D02*
X7071428Y-42195716D01*
D11*
X6857143Y-42552856D02*
X6928571Y-42338572D01*
D11*
X6857143Y-42695716D02*
X6857143Y-42552856D01*
D11*
X6928571Y-42910000D02*
X6857143Y-42695716D01*
D11*
X7071428Y-43052856D02*
X6928571Y-42910000D01*
D11*
X7214285Y-43124284D02*
X7071428Y-43052856D01*
D11*
X7428571Y-43124284D02*
X7214285Y-43124284D01*
D11*
X7571428Y-43052856D02*
X7428571Y-43124284D01*
D11*
X7714285Y-42910000D02*
X7571428Y-43052856D01*
D11*
X8928571Y-42195716D02*
X9071428Y-42338572D01*
D11*
X8785714Y-42124284D02*
X8928571Y-42195716D01*
D11*
X8571428Y-42124284D02*
X8785714Y-42124284D01*
D11*
X8428571Y-42195716D02*
X8571428Y-42124284D01*
D11*
X8285714Y-42338572D02*
X8428571Y-42195716D01*
D11*
X8214285Y-42552856D02*
X8285714Y-42338572D01*
D11*
X8214285Y-42695716D02*
X8214285Y-42552856D01*
D11*
X8285714Y-42910000D02*
X8214285Y-42695716D01*
D11*
X8428571Y-43052856D02*
X8285714Y-42910000D01*
D11*
X8571428Y-43124284D02*
X8428571Y-43052856D01*
D11*
X8785714Y-43124284D02*
X8571428Y-43124284D01*
D11*
X8928571Y-43052856D02*
X8785714Y-43124284D01*
D11*
X9071428Y-42910000D02*
X8928571Y-43052856D01*
D11*
X9571428Y-41695716D02*
X9500000Y-41624284D01*
D11*
X9642857Y-41624284D02*
X9571428Y-41695716D01*
D11*
X9571428Y-41552856D02*
X9642857Y-41624284D01*
D11*
X9500000Y-41624284D02*
X9571428Y-41552856D01*
D11*
X9571428Y-43124284D02*
X9571428Y-42124284D01*
D11*
X10214286Y-42838572D02*
X10214286Y-41624284D01*
D11*
X10285714Y-43052856D02*
X10214286Y-42838572D01*
D11*
X10428571Y-43124284D02*
X10285714Y-43052856D01*
D11*
X10571428Y-43124284D02*
X10428571Y-43124284D01*
D11*
X10500000Y-42124284D02*
X10000000Y-42124284D01*
D11*
X11142857Y-42195716D02*
X11285714Y-42124284D01*
D11*
X11000000Y-42338572D02*
X11142857Y-42195716D01*
D11*
X10928571Y-42552856D02*
X11000000Y-42338572D01*
D11*
X10928571Y-42695716D02*
X10928571Y-42552856D01*
D11*
X11000000Y-42910000D02*
X10928571Y-42695716D01*
D11*
X11142857Y-43052856D02*
X11000000Y-42910000D01*
D11*
X11285714Y-43124284D02*
X11142857Y-43052856D01*
D11*
X11500000Y-43124284D02*
X11285714Y-43124284D01*
D11*
X11642857Y-43052856D02*
X11500000Y-43124284D01*
D11*
X11785714Y-42910000D02*
X11642857Y-43052856D01*
D11*
X11857143Y-42695716D02*
X11785714Y-42910000D01*
D11*
X11857143Y-42552856D02*
X11857143Y-42695716D01*
D11*
X11785714Y-42338572D02*
X11857143Y-42552856D01*
D11*
X11642857Y-42195716D02*
X11785714Y-42338572D01*
D11*
X11500000Y-42124284D02*
X11642857Y-42195716D01*
D11*
X11285714Y-42124284D02*
X11500000Y-42124284D01*
D11*
X12357143Y-43124284D02*
X12357143Y-42124284D01*
D11*
X12428571Y-42338572D02*
X12357143Y-42552856D01*
D11*
X12571428Y-42195716D02*
X12428571Y-42338572D01*
D11*
X12714286Y-42124284D02*
X12571428Y-42195716D01*
D11*
X12928571Y-42124284D02*
X12714286Y-42124284D01*
D11*
X13928571Y-42195716D02*
X14000000Y-42338572D01*
D11*
X13714286Y-42124284D02*
X13928571Y-42195716D01*
D11*
X13500000Y-42124284D02*
X13714286Y-42124284D01*
D11*
X13285714Y-42195716D02*
X13500000Y-42124284D01*
D11*
X13214286Y-42338572D02*
X13285714Y-42195716D01*
D11*
X13285714Y-42481428D02*
X13214286Y-42338572D01*
D11*
X13428571Y-42552856D02*
X13285714Y-42481428D01*
D11*
X13785714Y-42624284D02*
X13428571Y-42552856D01*
D11*
X13928571Y-42695716D02*
X13785714Y-42624284D01*
D11*
X14000000Y-42838572D02*
X13928571Y-42695716D01*
D11*
X14000000Y-42910000D02*
X14000000Y-42838572D01*
D11*
X13928571Y-43052856D02*
X14000000Y-42910000D01*
D11*
X13714286Y-43124284D02*
X13928571Y-43052856D01*
D11*
X13500000Y-43124284D02*
X13714286Y-43124284D01*
D11*
X13285714Y-43052856D02*
X13500000Y-43124284D01*
D11*
X13214286Y-42910000D02*
X13285714Y-43052856D01*
D11*
X14500000Y-42195716D02*
X14571428Y-42124284D01*
D11*
X14571428Y-42267144D02*
X14500000Y-42195716D01*
D11*
X14642857Y-42195716D02*
X14571428Y-42267144D01*
D11*
X14571428Y-42124284D02*
X14642857Y-42195716D01*
D11*
X14500000Y-43052856D02*
X14571428Y-42981428D01*
D11*
X14571428Y-43124284D02*
X14500000Y-43052856D01*
D11*
X14642857Y-43052856D02*
X14571428Y-43124284D01*
D11*
X14571428Y-42981428D02*
X14642857Y-43052856D01*
D11*
X16428571Y-42195716D02*
X16500000Y-42338572D01*
D11*
X16214285Y-42124284D02*
X16428571Y-42195716D01*
D11*
X16000000Y-42124284D02*
X16214285Y-42124284D01*
D11*
X15785714Y-42195716D02*
X16000000Y-42124284D01*
D11*
X15714285Y-42338572D02*
X15785714Y-42195716D01*
D11*
X15785714Y-42481428D02*
X15714285Y-42338572D01*
D11*
X15928571Y-42552856D02*
X15785714Y-42481428D01*
D11*
X16285714Y-42624284D02*
X15928571Y-42552856D01*
D11*
X16428571Y-42695716D02*
X16285714Y-42624284D01*
D11*
X16500000Y-42838572D02*
X16428571Y-42695716D01*
D11*
X16500000Y-42910000D02*
X16500000Y-42838572D01*
D11*
X16428571Y-43052856D02*
X16500000Y-42910000D01*
D11*
X16214285Y-43124284D02*
X16428571Y-43052856D01*
D11*
X16000000Y-43124284D02*
X16214285Y-43124284D01*
D11*
X15785714Y-43052856D02*
X16000000Y-43124284D01*
D11*
X15714285Y-42910000D02*
X15785714Y-43052856D01*
D11*
X17000000Y-41695716D02*
X16928572Y-41624284D01*
D11*
X17071428Y-41624284D02*
X17000000Y-41695716D01*
D11*
X17000000Y-41552856D02*
X17071428Y-41624284D01*
D11*
X16928572Y-41624284D02*
X17000000Y-41552856D01*
D11*
X17000000Y-43124284D02*
X17000000Y-42124284D01*
D11*
X17571428Y-43124284D02*
X17571428Y-41624284D01*
D11*
X18142856Y-43124284D02*
X18142856Y-41624284D01*
D11*
X18142856Y-42838572D02*
X18857142Y-42124284D01*
D11*
X18928572Y-43124284D02*
X18428572Y-42552856D01*
D11*
X20000000Y-42195716D02*
X20071428Y-42338572D01*
D11*
X19785714Y-42124284D02*
X20000000Y-42195716D01*
D11*
X19571428Y-42124284D02*
X19785714Y-42124284D01*
D11*
X19357142Y-42195716D02*
X19571428Y-42124284D01*
D11*
X19285714Y-42338572D02*
X19357142Y-42195716D01*
D11*
X19357142Y-42481428D02*
X19285714Y-42338572D01*
D11*
X19500000Y-42552856D02*
X19357142Y-42481428D01*
D11*
X19857142Y-42624284D02*
X19500000Y-42552856D01*
D11*
X20000000Y-42695716D02*
X19857142Y-42624284D01*
D11*
X20071428Y-42838572D02*
X20000000Y-42695716D01*
D11*
X20071428Y-42910000D02*
X20071428Y-42838572D01*
D11*
X20000000Y-43052856D02*
X20071428Y-42910000D01*
D11*
X19785714Y-43124284D02*
X20000000Y-43052856D01*
D11*
X19571428Y-43124284D02*
X19785714Y-43124284D01*
D11*
X19357142Y-43052856D02*
X19571428Y-43124284D01*
D11*
X19285714Y-42910000D02*
X19357142Y-43052856D01*
D11*
X21214286Y-42195716D02*
X21357142Y-42338572D01*
D11*
X21071428Y-42124284D02*
X21214286Y-42195716D01*
D11*
X20857142Y-42124284D02*
X21071428Y-42124284D01*
D11*
X20714286Y-42195716D02*
X20857142Y-42124284D01*
D11*
X20571428Y-42338572D02*
X20714286Y-42195716D01*
D11*
X20500000Y-42552856D02*
X20571428Y-42338572D01*
D11*
X20500000Y-42695716D02*
X20500000Y-42552856D01*
D11*
X20571428Y-42910000D02*
X20500000Y-42695716D01*
D11*
X20714286Y-43052856D02*
X20571428Y-42910000D01*
D11*
X20857142Y-43124284D02*
X20714286Y-43052856D01*
D11*
X21071428Y-43124284D02*
X20857142Y-43124284D01*
D11*
X21214286Y-43052856D02*
X21071428Y-43124284D01*
D11*
X21357142Y-42910000D02*
X21214286Y-43052856D01*
D11*
X21857142Y-43124284D02*
X21857142Y-42124284D01*
D11*
X21928572Y-42338572D02*
X21857142Y-42552856D01*
D11*
X22071428Y-42195716D02*
X21928572Y-42338572D01*
D11*
X22214286Y-42124284D02*
X22071428Y-42195716D01*
D11*
X22428572Y-42124284D02*
X22214286Y-42124284D01*
D11*
X23571428Y-42552856D02*
X22714286Y-42552856D01*
D11*
X23571428Y-42410000D02*
X23571428Y-42552856D01*
D11*
X23500000Y-42267144D02*
X23571428Y-42410000D01*
D11*
X23428572Y-42195716D02*
X23500000Y-42267144D01*
D11*
X23285714Y-42124284D02*
X23428572Y-42195716D01*
D11*
X23071428Y-42124284D02*
X23285714Y-42124284D01*
D11*
X22928572Y-42195716D02*
X23071428Y-42124284D01*
D11*
X22785714Y-42338572D02*
X22928572Y-42195716D01*
D11*
X22714286Y-42552856D02*
X22785714Y-42338572D01*
D11*
X22714286Y-42695716D02*
X22714286Y-42552856D01*
D11*
X22785714Y-42910000D02*
X22714286Y-42695716D01*
D11*
X22928572Y-43052856D02*
X22785714Y-42910000D01*
D11*
X23071428Y-43124284D02*
X22928572Y-43052856D01*
D11*
X23285714Y-43124284D02*
X23071428Y-43124284D01*
D11*
X23428572Y-43052856D02*
X23285714Y-43124284D01*
D11*
X23571428Y-42910000D02*
X23428572Y-43052856D01*
D11*
X24857142Y-42552856D02*
X24000000Y-42552856D01*
D11*
X24857142Y-42410000D02*
X24857142Y-42552856D01*
D11*
X24785714Y-42267144D02*
X24857142Y-42410000D01*
D11*
X24714286Y-42195716D02*
X24785714Y-42267144D01*
D11*
X24571428Y-42124284D02*
X24714286Y-42195716D01*
D11*
X24357142Y-42124284D02*
X24571428Y-42124284D01*
D11*
X24214286Y-42195716D02*
X24357142Y-42124284D01*
D11*
X24071428Y-42338572D02*
X24214286Y-42195716D01*
D11*
X24000000Y-42552856D02*
X24071428Y-42338572D01*
D11*
X24000000Y-42695716D02*
X24000000Y-42552856D01*
D11*
X24071428Y-42910000D02*
X24000000Y-42695716D01*
D11*
X24214286Y-43052856D02*
X24071428Y-42910000D01*
D11*
X24357142Y-43124284D02*
X24214286Y-43052856D01*
D11*
X24571428Y-43124284D02*
X24357142Y-43124284D01*
D11*
X24714286Y-43052856D02*
X24571428Y-43124284D01*
D11*
X24857142Y-42910000D02*
X24714286Y-43052856D01*
D11*
X25357142Y-43124284D02*
X25357142Y-42124284D01*
D11*
X25571428Y-42195716D02*
X25357142Y-42410000D01*
D11*
X25714286Y-42124284D02*
X25571428Y-42195716D01*
D11*
X25928572Y-42124284D02*
X25714286Y-42124284D01*
D11*
X26071428Y-42195716D02*
X25928572Y-42124284D01*
D11*
X26142856Y-42410000D02*
X26071428Y-42195716D01*
D11*
X26142856Y-43124284D02*
X26142856Y-42410000D01*
D11*
X27285714Y-43124284D02*
X27285714Y-42124284D01*
D11*
X27500000Y-42195716D02*
X27285714Y-42410000D01*
D11*
X27642856Y-42124284D02*
X27500000Y-42195716D01*
D11*
X27857142Y-42124284D02*
X27642856Y-42124284D01*
D11*
X28000000Y-42195716D02*
X27857142Y-42124284D01*
D11*
X28071428Y-42410000D02*
X28000000Y-42195716D01*
D11*
X28071428Y-43124284D02*
X28071428Y-42410000D01*
D11*
X28285714Y-42195716D02*
X28071428Y-42410000D01*
D11*
X28428570Y-42124284D02*
X28285714Y-42195716D01*
D11*
X28642856Y-42124284D02*
X28428570Y-42124284D01*
D11*
X28785714Y-42195716D02*
X28642856Y-42124284D01*
D11*
X28857142Y-42410000D02*
X28785714Y-42195716D01*
D11*
X28857142Y-43124284D02*
X28857142Y-42410000D01*
D11*
X30214286Y-43124284D02*
X30214286Y-42124284D01*
D11*
X30071428Y-42195716D02*
X30214286Y-42338572D01*
D11*
X29928570Y-42124284D02*
X30071428Y-42195716D01*
D11*
X29714286Y-42124284D02*
X29928570Y-42124284D01*
D11*
X29571428Y-42195716D02*
X29714286Y-42124284D01*
D11*
X29428570Y-42338572D02*
X29571428Y-42195716D01*
D11*
X29357142Y-42552856D02*
X29428570Y-42338572D01*
D11*
X29357142Y-42695716D02*
X29357142Y-42552856D01*
D11*
X29428570Y-42910000D02*
X29357142Y-42695716D01*
D11*
X29571428Y-43052856D02*
X29428570Y-42910000D01*
D11*
X29714286Y-43124284D02*
X29571428Y-43052856D01*
D11*
X29928570Y-43124284D02*
X29714286Y-43124284D01*
D11*
X30071428Y-43052856D02*
X29928570Y-43124284D01*
D11*
X30214286Y-42910000D02*
X30071428Y-43052856D01*
D11*
X30785714Y-43124284D02*
X30785714Y-42124284D01*
D11*
X30857142Y-42338572D02*
X30785714Y-42552856D01*
D11*
X31000000Y-42195716D02*
X30857142Y-42338572D01*
D11*
X31142856Y-42124284D02*
X31000000Y-42195716D01*
D11*
X31357142Y-42124284D02*
X31142856Y-42124284D01*
D11*
X31714286Y-43124284D02*
X31714286Y-41624284D01*
D11*
X31714286Y-42838572D02*
X32428570Y-42124284D01*
D11*
X32500000Y-43124284D02*
X32000000Y-42552856D01*
D11*
X33571428Y-42195716D02*
X33642856Y-42338572D01*
D11*
X33357142Y-42124284D02*
X33571428Y-42195716D01*
D11*
X33142856Y-42124284D02*
X33357142Y-42124284D01*
D11*
X32928570Y-42195716D02*
X33142856Y-42124284D01*
D11*
X32857142Y-42338572D02*
X32928570Y-42195716D01*
D11*
X32928570Y-42481428D02*
X32857142Y-42338572D01*
D11*
X33071428Y-42552856D02*
X32928570Y-42481428D01*
D11*
X33428570Y-42624284D02*
X33071428Y-42552856D01*
D11*
X33571428Y-42695716D02*
X33428570Y-42624284D01*
D11*
X33642856Y-42838572D02*
X33571428Y-42695716D01*
D11*
X33642856Y-42910000D02*
X33642856Y-42838572D01*
D11*
X33571428Y-43052856D02*
X33642856Y-42910000D01*
D11*
X33357142Y-43124284D02*
X33571428Y-43052856D01*
D11*
X33142856Y-43124284D02*
X33357142Y-43124284D01*
D11*
X32928570Y-43052856D02*
X33142856Y-43124284D01*
D11*
X32857142Y-42910000D02*
X32928570Y-43052856D01*
D11*
X35500000Y-43124284D02*
X35500000Y-42124284D01*
D11*
X35357144Y-42195716D02*
X35500000Y-42338572D01*
D11*
X35214284Y-42124284D02*
X35357144Y-42195716D01*
D11*
X35000000Y-42124284D02*
X35214284Y-42124284D01*
D11*
X34857144Y-42195716D02*
X35000000Y-42124284D01*
D11*
X34714284Y-42338572D02*
X34857144Y-42195716D01*
D11*
X34642856Y-42552856D02*
X34714284Y-42338572D01*
D11*
X34642856Y-42695716D02*
X34642856Y-42552856D01*
D11*
X34714284Y-42910000D02*
X34642856Y-42695716D01*
D11*
X34857144Y-43052856D02*
X34714284Y-42910000D01*
D11*
X35000000Y-43124284D02*
X34857144Y-43052856D01*
D11*
X35214284Y-43124284D02*
X35000000Y-43124284D01*
D11*
X35357144Y-43052856D02*
X35214284Y-43124284D01*
D11*
X35500000Y-42910000D02*
X35357144Y-43052856D01*
D11*
X36071428Y-43124284D02*
X36071428Y-42124284D01*
D11*
X36285712Y-42195716D02*
X36071428Y-42410000D01*
D11*
X36428572Y-42124284D02*
X36285712Y-42195716D01*
D11*
X36642856Y-42124284D02*
X36428572Y-42124284D01*
D11*
X36785712Y-42195716D02*
X36642856Y-42124284D01*
D11*
X36857144Y-42410000D02*
X36785712Y-42195716D01*
D11*
X36857144Y-43124284D02*
X36857144Y-42410000D01*
D11*
X37571428Y-42195716D02*
X37714284Y-42124284D01*
D11*
X37428572Y-42338572D02*
X37571428Y-42195716D01*
D11*
X37357144Y-42552856D02*
X37428572Y-42338572D01*
D11*
X37357144Y-42695716D02*
X37357144Y-42552856D01*
D11*
X37428572Y-42910000D02*
X37357144Y-42695716D01*
D11*
X37571428Y-43052856D02*
X37428572Y-42910000D01*
D11*
X37714284Y-43124284D02*
X37571428Y-43052856D01*
D11*
X37928572Y-43124284D02*
X37714284Y-43124284D01*
D11*
X38071428Y-43052856D02*
X37928572Y-43124284D01*
D11*
X38214284Y-42910000D02*
X38071428Y-43052856D01*
D11*
X38285712Y-42695716D02*
X38214284Y-42910000D01*
D11*
X38285712Y-42552856D02*
X38285712Y-42695716D01*
D11*
X38214284Y-42338572D02*
X38285712Y-42552856D01*
D11*
X38071428Y-42195716D02*
X38214284Y-42338572D01*
D11*
X37928572Y-42124284D02*
X38071428Y-42195716D01*
D11*
X37714284Y-42124284D02*
X37928572Y-42124284D01*
D11*
X39571428Y-43124284D02*
X39571428Y-41624284D01*
D11*
X39428572Y-42195716D02*
X39571428Y-42338572D01*
D11*
X39285712Y-42124284D02*
X39428572Y-42195716D01*
D11*
X39071428Y-42124284D02*
X39285712Y-42124284D01*
D11*
X38928572Y-42195716D02*
X39071428Y-42124284D01*
D11*
X38785712Y-42338572D02*
X38928572Y-42195716D01*
D11*
X38714284Y-42552856D02*
X38785712Y-42338572D01*
D11*
X38714284Y-42695716D02*
X38714284Y-42552856D01*
D11*
X38785712Y-42910000D02*
X38714284Y-42695716D01*
D11*
X38928572Y-43052856D02*
X38785712Y-42910000D01*
D11*
X39071428Y-43124284D02*
X38928572Y-43052856D01*
D11*
X39285712Y-43124284D02*
X39071428Y-43124284D01*
D11*
X39428572Y-43052856D02*
X39285712Y-43124284D01*
D11*
X39571428Y-42910000D02*
X39428572Y-43052856D01*
D11*
X40928572Y-42552856D02*
X40071428Y-42552856D01*
D11*
X40928572Y-42410000D02*
X40928572Y-42552856D01*
D11*
X40857144Y-42267144D02*
X40928572Y-42410000D01*
D11*
X40785712Y-42195716D02*
X40857144Y-42267144D01*
D11*
X40642856Y-42124284D02*
X40785712Y-42195716D01*
D11*
X40428572Y-42124284D02*
X40642856Y-42124284D01*
D11*
X40285712Y-42195716D02*
X40428572Y-42124284D01*
D11*
X40142856Y-42338572D02*
X40285712Y-42195716D01*
D11*
X40071428Y-42552856D02*
X40142856Y-42338572D01*
D11*
X40071428Y-42695716D02*
X40071428Y-42552856D01*
D11*
X40142856Y-42910000D02*
X40071428Y-42695716D01*
D11*
X40285712Y-43052856D02*
X40142856Y-42910000D01*
D11*
X40428572Y-43124284D02*
X40285712Y-43052856D01*
D11*
X40642856Y-43124284D02*
X40428572Y-43124284D01*
D11*
X40785712Y-43052856D02*
X40642856Y-43124284D01*
D11*
X40928572Y-42910000D02*
X40785712Y-43052856D01*
D11*
X1571428Y-44686428D02*
X285714Y-44686428D01*
D11*
X3500000Y-43900716D02*
X3642857Y-44043572D01*
D11*
X3285714Y-43829284D02*
X3500000Y-43900716D01*
D11*
X3000000Y-43829284D02*
X3285714Y-43829284D01*
D11*
X2785714Y-43900716D02*
X3000000Y-43829284D01*
D11*
X2642857Y-44043572D02*
X2785714Y-43900716D01*
D11*
X2642857Y-44186428D02*
X2642857Y-44043572D01*
D11*
X2714285Y-44329284D02*
X2642857Y-44186428D01*
D11*
X2785714Y-44400716D02*
X2714285Y-44329284D01*
D11*
X2928571Y-44472144D02*
X2785714Y-44400716D01*
D11*
X3357142Y-44615000D02*
X2928571Y-44472144D01*
D11*
X3500000Y-44686428D02*
X3357142Y-44615000D01*
D11*
X3571428Y-44757856D02*
X3500000Y-44686428D01*
D11*
X3642857Y-44900716D02*
X3571428Y-44757856D01*
D11*
X3642857Y-45115000D02*
X3642857Y-44900716D01*
D11*
X3500000Y-45257856D02*
X3642857Y-45115000D01*
D11*
X3285714Y-45329284D02*
X3500000Y-45257856D01*
D11*
X3000000Y-45329284D02*
X3285714Y-45329284D01*
D11*
X2785714Y-45257856D02*
X3000000Y-45329284D01*
D11*
X2642857Y-45115000D02*
X2785714Y-45257856D01*
D11*
X4285714Y-44400716D02*
X4428571Y-44329284D01*
D11*
X4142857Y-44543572D02*
X4285714Y-44400716D01*
D11*
X4071428Y-44757856D02*
X4142857Y-44543572D01*
D11*
X4071428Y-44900716D02*
X4071428Y-44757856D01*
D11*
X4142857Y-45115000D02*
X4071428Y-44900716D01*
D11*
X4285714Y-45257856D02*
X4142857Y-45115000D01*
D11*
X4428571Y-45329284D02*
X4285714Y-45257856D01*
D11*
X4642857Y-45329284D02*
X4428571Y-45329284D01*
D11*
X4785714Y-45257856D02*
X4642857Y-45329284D01*
D11*
X4928571Y-45115000D02*
X4785714Y-45257856D01*
D11*
X5000000Y-44900716D02*
X4928571Y-45115000D01*
D11*
X5000000Y-44757856D02*
X5000000Y-44900716D01*
D11*
X4928571Y-44543572D02*
X5000000Y-44757856D01*
D11*
X4785714Y-44400716D02*
X4928571Y-44543572D01*
D11*
X4642857Y-44329284D02*
X4785714Y-44400716D01*
D11*
X4428571Y-44329284D02*
X4642857Y-44329284D01*
D11*
X5500000Y-45329284D02*
X5500000Y-44329284D01*
D11*
X5714285Y-44400716D02*
X5500000Y-44615000D01*
D11*
X5857143Y-44329284D02*
X5714285Y-44400716D01*
D11*
X6071428Y-44329284D02*
X5857143Y-44329284D01*
D11*
X6214285Y-44400716D02*
X6071428Y-44329284D01*
D11*
X6285714Y-44615000D02*
X6214285Y-44400716D01*
D11*
X6285714Y-45329284D02*
X6285714Y-44615000D01*
D11*
X6500000Y-44400716D02*
X6285714Y-44615000D01*
D11*
X6642857Y-44329284D02*
X6500000Y-44400716D01*
D11*
X6857143Y-44329284D02*
X6642857Y-44329284D01*
D11*
X7000000Y-44400716D02*
X6857143Y-44329284D01*
D11*
X7071428Y-44615000D02*
X7000000Y-44400716D01*
D11*
X7071428Y-45329284D02*
X7071428Y-44615000D01*
D11*
X8428571Y-44757856D02*
X7571428Y-44757856D01*
D11*
X8428571Y-44615000D02*
X8428571Y-44757856D01*
D11*
X8357142Y-44472144D02*
X8428571Y-44615000D01*
D11*
X8285714Y-44400716D02*
X8357142Y-44472144D01*
D11*
X8142857Y-44329284D02*
X8285714Y-44400716D01*
D11*
X7928571Y-44329284D02*
X8142857Y-44329284D01*
D11*
X7785714Y-44400716D02*
X7928571Y-44329284D01*
D11*
X7642857Y-44543572D02*
X7785714Y-44400716D01*
D11*
X7571428Y-44757856D02*
X7642857Y-44543572D01*
D11*
X7571428Y-44900716D02*
X7571428Y-44757856D01*
D11*
X7642857Y-45115000D02*
X7571428Y-44900716D01*
D11*
X7785714Y-45257856D02*
X7642857Y-45115000D01*
D11*
X7928571Y-45329284D02*
X7785714Y-45257856D01*
D11*
X8142857Y-45329284D02*
X7928571Y-45329284D01*
D11*
X8285714Y-45257856D02*
X8142857Y-45329284D01*
D11*
X8428571Y-45115000D02*
X8285714Y-45257856D01*
D11*
X10142857Y-44400716D02*
X10214286Y-44543572D01*
D11*
X9928571Y-44329284D02*
X10142857Y-44400716D01*
D11*
X9714286Y-44329284D02*
X9928571Y-44329284D01*
D11*
X9500000Y-44400716D02*
X9714286Y-44329284D01*
D11*
X9428571Y-44543572D02*
X9500000Y-44400716D01*
D11*
X9500000Y-44686428D02*
X9428571Y-44543572D01*
D11*
X9642857Y-44757856D02*
X9500000Y-44686428D01*
D11*
X10000000Y-44829284D02*
X9642857Y-44757856D01*
D11*
X10142857Y-44900716D02*
X10000000Y-44829284D01*
D11*
X10214286Y-45043572D02*
X10142857Y-44900716D01*
D11*
X10214286Y-45115000D02*
X10214286Y-45043572D01*
D11*
X10142857Y-45257856D02*
X10214286Y-45115000D01*
D11*
X9928571Y-45329284D02*
X10142857Y-45257856D01*
D11*
X9714286Y-45329284D02*
X9928571Y-45329284D01*
D11*
X9500000Y-45257856D02*
X9714286Y-45329284D01*
D11*
X9428571Y-45115000D02*
X9500000Y-45257856D01*
D11*
X10714286Y-43900716D02*
X10642857Y-43829284D01*
D11*
X10785714Y-43829284D02*
X10714286Y-43900716D01*
D11*
X10714286Y-43757856D02*
X10785714Y-43829284D01*
D11*
X10642857Y-43829284D02*
X10714286Y-43757856D01*
D11*
X10714286Y-45329284D02*
X10714286Y-44329284D01*
D11*
X11285714Y-45329284D02*
X11285714Y-43829284D01*
D11*
X11857143Y-45329284D02*
X11857143Y-43829284D01*
D11*
X11857143Y-45043572D02*
X12571428Y-44329284D01*
D11*
X12642857Y-45329284D02*
X12142857Y-44757856D01*
D11*
X13714286Y-44400716D02*
X13785714Y-44543572D01*
D11*
X13500000Y-44329284D02*
X13714286Y-44400716D01*
D11*
X13285714Y-44329284D02*
X13500000Y-44329284D01*
D11*
X13071428Y-44400716D02*
X13285714Y-44329284D01*
D11*
X13000000Y-44543572D02*
X13071428Y-44400716D01*
D11*
X13071428Y-44686428D02*
X13000000Y-44543572D01*
D11*
X13214286Y-44757856D02*
X13071428Y-44686428D01*
D11*
X13571428Y-44829284D02*
X13214286Y-44757856D01*
D11*
X13714286Y-44900716D02*
X13571428Y-44829284D01*
D11*
X13785714Y-45043572D02*
X13714286Y-44900716D01*
D11*
X13785714Y-45115000D02*
X13785714Y-45043572D01*
D11*
X13714286Y-45257856D02*
X13785714Y-45115000D01*
D11*
X13500000Y-45329284D02*
X13714286Y-45257856D01*
D11*
X13285714Y-45329284D02*
X13500000Y-45329284D01*
D11*
X13071428Y-45257856D02*
X13285714Y-45329284D01*
D11*
X13000000Y-45115000D02*
X13071428Y-45257856D01*
D11*
X14928571Y-44400716D02*
X15071428Y-44543572D01*
D11*
X14785714Y-44329284D02*
X14928571Y-44400716D01*
D11*
X14571428Y-44329284D02*
X14785714Y-44329284D01*
D11*
X14428571Y-44400716D02*
X14571428Y-44329284D01*
D11*
X14285714Y-44543572D02*
X14428571Y-44400716D01*
D11*
X14214285Y-44757856D02*
X14285714Y-44543572D01*
D11*
X14214285Y-44900716D02*
X14214285Y-44757856D01*
D11*
X14285714Y-45115000D02*
X14214285Y-44900716D01*
D11*
X14428571Y-45257856D02*
X14285714Y-45115000D01*
D11*
X14571428Y-45329284D02*
X14428571Y-45257856D01*
D11*
X14785714Y-45329284D02*
X14571428Y-45329284D01*
D11*
X14928571Y-45257856D02*
X14785714Y-45329284D01*
D11*
X15071428Y-45115000D02*
X14928571Y-45257856D01*
D11*
X15571428Y-45329284D02*
X15571428Y-44329284D01*
D11*
X15642857Y-44543572D02*
X15571428Y-44757856D01*
D11*
X15785714Y-44400716D02*
X15642857Y-44543572D01*
D11*
X15928571Y-44329284D02*
X15785714Y-44400716D01*
D11*
X16142857Y-44329284D02*
X15928571Y-44329284D01*
D11*
X17285714Y-44757856D02*
X16428571Y-44757856D01*
D11*
X17285714Y-44615000D02*
X17285714Y-44757856D01*
D11*
X17214286Y-44472144D02*
X17285714Y-44615000D01*
D11*
X17142856Y-44400716D02*
X17214286Y-44472144D01*
D11*
X17000000Y-44329284D02*
X17142856Y-44400716D01*
D11*
X16785714Y-44329284D02*
X17000000Y-44329284D01*
D11*
X16642857Y-44400716D02*
X16785714Y-44329284D01*
D11*
X16500000Y-44543572D02*
X16642857Y-44400716D01*
D11*
X16428571Y-44757856D02*
X16500000Y-44543572D01*
D11*
X16428571Y-44900716D02*
X16428571Y-44757856D01*
D11*
X16500000Y-45115000D02*
X16428571Y-44900716D01*
D11*
X16642857Y-45257856D02*
X16500000Y-45115000D01*
D11*
X16785714Y-45329284D02*
X16642857Y-45257856D01*
D11*
X17000000Y-45329284D02*
X16785714Y-45329284D01*
D11*
X17142856Y-45257856D02*
X17000000Y-45329284D01*
D11*
X17285714Y-45115000D02*
X17142856Y-45257856D01*
D11*
X18571428Y-44757856D02*
X17714286Y-44757856D01*
D11*
X18571428Y-44615000D02*
X18571428Y-44757856D01*
D11*
X18500000Y-44472144D02*
X18571428Y-44615000D01*
D11*
X18428572Y-44400716D02*
X18500000Y-44472144D01*
D11*
X18285714Y-44329284D02*
X18428572Y-44400716D01*
D11*
X18071428Y-44329284D02*
X18285714Y-44329284D01*
D11*
X17928572Y-44400716D02*
X18071428Y-44329284D01*
D11*
X17785714Y-44543572D02*
X17928572Y-44400716D01*
D11*
X17714286Y-44757856D02*
X17785714Y-44543572D01*
D11*
X17714286Y-44900716D02*
X17714286Y-44757856D01*
D11*
X17785714Y-45115000D02*
X17714286Y-44900716D01*
D11*
X17928572Y-45257856D02*
X17785714Y-45115000D01*
D11*
X18071428Y-45329284D02*
X17928572Y-45257856D01*
D11*
X18285714Y-45329284D02*
X18071428Y-45329284D01*
D11*
X18428572Y-45257856D02*
X18285714Y-45329284D01*
D11*
X18571428Y-45115000D02*
X18428572Y-45257856D01*
D11*
X19071428Y-45329284D02*
X19071428Y-44329284D01*
D11*
X19285714Y-44400716D02*
X19071428Y-44615000D01*
D11*
X19428572Y-44329284D02*
X19285714Y-44400716D01*
D11*
X19642856Y-44329284D02*
X19428572Y-44329284D01*
D11*
X19785714Y-44400716D02*
X19642856Y-44329284D01*
D11*
X19857142Y-44615000D02*
X19785714Y-44400716D01*
D11*
X19857142Y-45329284D02*
X19857142Y-44615000D01*
D11*
X21000000Y-43900716D02*
X20928572Y-43829284D01*
D11*
X21071428Y-43829284D02*
X21000000Y-43900716D01*
D11*
X21000000Y-43757856D02*
X21071428Y-43829284D01*
D11*
X20928572Y-43829284D02*
X21000000Y-43757856D01*
D11*
X21000000Y-45329284D02*
X21000000Y-44329284D01*
D11*
X22214286Y-44400716D02*
X22285714Y-44543572D01*
D11*
X22000000Y-44329284D02*
X22214286Y-44400716D01*
D11*
X21785714Y-44329284D02*
X22000000Y-44329284D01*
D11*
X21571428Y-44400716D02*
X21785714Y-44329284D01*
D11*
X21500000Y-44543572D02*
X21571428Y-44400716D01*
D11*
X21571428Y-44686428D02*
X21500000Y-44543572D01*
D11*
X21714286Y-44757856D02*
X21571428Y-44686428D01*
D11*
X22071428Y-44829284D02*
X21714286Y-44757856D01*
D11*
X22214286Y-44900716D02*
X22071428Y-44829284D01*
D11*
X22285714Y-45043572D02*
X22214286Y-44900716D01*
D11*
X22285714Y-45115000D02*
X22285714Y-45043572D01*
D11*
X22214286Y-45257856D02*
X22285714Y-45115000D01*
D11*
X22000000Y-45329284D02*
X22214286Y-45257856D01*
D11*
X21785714Y-45329284D02*
X22000000Y-45329284D01*
D11*
X21571428Y-45257856D02*
X21785714Y-45329284D01*
D11*
X21500000Y-45115000D02*
X21571428Y-45257856D01*
D11*
X23428572Y-45043572D02*
X23428572Y-43829284D01*
D11*
X23500000Y-45257856D02*
X23428572Y-45043572D01*
D11*
X23642856Y-45329284D02*
X23500000Y-45257856D01*
D11*
X23785714Y-45329284D02*
X23642856Y-45329284D01*
D11*
X23714286Y-44329284D02*
X23214286Y-44329284D01*
D11*
X24357142Y-44400716D02*
X24500000Y-44329284D01*
D11*
X24214286Y-44543572D02*
X24357142Y-44400716D01*
D11*
X24142856Y-44757856D02*
X24214286Y-44543572D01*
D11*
X24142856Y-44900716D02*
X24142856Y-44757856D01*
D11*
X24214286Y-45115000D02*
X24142856Y-44900716D01*
D11*
X24357142Y-45257856D02*
X24214286Y-45115000D01*
D11*
X24500000Y-45329284D02*
X24357142Y-45257856D01*
D11*
X24714286Y-45329284D02*
X24500000Y-45329284D01*
D11*
X24857142Y-45257856D02*
X24714286Y-45329284D01*
D11*
X25000000Y-45115000D02*
X24857142Y-45257856D01*
D11*
X25071428Y-44900716D02*
X25000000Y-45115000D01*
D11*
X25071428Y-44757856D02*
X25071428Y-44900716D01*
D11*
X25000000Y-44543572D02*
X25071428Y-44757856D01*
D11*
X24857142Y-44400716D02*
X25000000Y-44543572D01*
D11*
X24714286Y-44329284D02*
X24857142Y-44400716D01*
D11*
X24500000Y-44329284D02*
X24714286Y-44329284D01*
D11*
X25714286Y-44400716D02*
X25857142Y-44329284D01*
D11*
X25571428Y-44543572D02*
X25714286Y-44400716D01*
D11*
X25500000Y-44757856D02*
X25571428Y-44543572D01*
D11*
X25500000Y-44900716D02*
X25500000Y-44757856D01*
D11*
X25571428Y-45115000D02*
X25500000Y-44900716D01*
D11*
X25714286Y-45257856D02*
X25571428Y-45115000D01*
D11*
X25857142Y-45329284D02*
X25714286Y-45257856D01*
D11*
X26071428Y-45329284D02*
X25857142Y-45329284D01*
D11*
X26214286Y-45257856D02*
X26071428Y-45329284D01*
D11*
X26357142Y-45115000D02*
X26214286Y-45257856D01*
D11*
X26428572Y-44900716D02*
X26357142Y-45115000D01*
D11*
X26428572Y-44757856D02*
X26428572Y-44900716D01*
D11*
X26357142Y-44543572D02*
X26428572Y-44757856D01*
D11*
X26214286Y-44400716D02*
X26357142Y-44543572D01*
D11*
X26071428Y-44329284D02*
X26214286Y-44400716D01*
D11*
X25857142Y-44329284D02*
X26071428Y-44329284D01*
D11*
X28142856Y-44400716D02*
X28214286Y-44543572D01*
D11*
X27928570Y-44329284D02*
X28142856Y-44400716D01*
D11*
X27714286Y-44329284D02*
X27928570Y-44329284D01*
D11*
X27500000Y-44400716D02*
X27714286Y-44329284D01*
D11*
X27428572Y-44543572D02*
X27500000Y-44400716D01*
D11*
X27500000Y-44686428D02*
X27428572Y-44543572D01*
D11*
X27642856Y-44757856D02*
X27500000Y-44686428D01*
D11*
X28000000Y-44829284D02*
X27642856Y-44757856D01*
D11*
X28142856Y-44900716D02*
X28000000Y-44829284D01*
D11*
X28214286Y-45043572D02*
X28142856Y-44900716D01*
D11*
X28214286Y-45115000D02*
X28214286Y-45043572D01*
D11*
X28142856Y-45257856D02*
X28214286Y-45115000D01*
D11*
X27928570Y-45329284D02*
X28142856Y-45257856D01*
D11*
X27714286Y-45329284D02*
X27928570Y-45329284D01*
D11*
X27500000Y-45257856D02*
X27714286Y-45329284D01*
D11*
X27428572Y-45115000D02*
X27500000Y-45257856D01*
D11*
X28714286Y-45329284D02*
X28714286Y-44329284D01*
D11*
X28928570Y-44400716D02*
X28714286Y-44615000D01*
D11*
X29071428Y-44329284D02*
X28928570Y-44400716D01*
D11*
X29285714Y-44329284D02*
X29071428Y-44329284D01*
D11*
X29428570Y-44400716D02*
X29285714Y-44329284D01*
D11*
X29500000Y-44615000D02*
X29428570Y-44400716D01*
D11*
X29500000Y-45329284D02*
X29500000Y-44615000D01*
D11*
X29714286Y-44400716D02*
X29500000Y-44615000D01*
D11*
X29857142Y-44329284D02*
X29714286Y-44400716D01*
D11*
X30071428Y-44329284D02*
X29857142Y-44329284D01*
D11*
X30214286Y-44400716D02*
X30071428Y-44329284D01*
D11*
X30285714Y-44615000D02*
X30214286Y-44400716D01*
D11*
X30285714Y-45329284D02*
X30285714Y-44615000D01*
D11*
X31642856Y-45329284D02*
X31642856Y-44329284D01*
D11*
X31500000Y-44400716D02*
X31642856Y-44543572D01*
D11*
X31357142Y-44329284D02*
X31500000Y-44400716D01*
D11*
X31142856Y-44329284D02*
X31357142Y-44329284D01*
D11*
X31000000Y-44400716D02*
X31142856Y-44329284D01*
D11*
X30857142Y-44543572D02*
X31000000Y-44400716D01*
D11*
X30785714Y-44757856D02*
X30857142Y-44543572D01*
D11*
X30785714Y-44900716D02*
X30785714Y-44757856D01*
D11*
X30857142Y-45115000D02*
X30785714Y-44900716D01*
D11*
X31000000Y-45257856D02*
X30857142Y-45115000D01*
D11*
X31142856Y-45329284D02*
X31000000Y-45257856D01*
D11*
X31357142Y-45329284D02*
X31142856Y-45329284D01*
D11*
X31500000Y-45257856D02*
X31357142Y-45329284D01*
D11*
X31642856Y-45115000D02*
X31500000Y-45257856D01*
D11*
X32214286Y-45329284D02*
X32214286Y-43829284D01*
D11*
X32785714Y-45329284D02*
X32785714Y-43829284D01*
D11*
X33357142Y-44400716D02*
X33428570Y-44329284D01*
D11*
X33428570Y-44472144D02*
X33357142Y-44400716D01*
D11*
X33500000Y-44400716D02*
X33428570Y-44472144D01*
D11*
X33428570Y-44329284D02*
X33500000Y-44400716D01*
D11*
X33428570Y-45329284D02*
X33500000Y-45257856D01*
D11*
X33357142Y-45257856D02*
X33428570Y-45329284D01*
D11*
X33428570Y-45186428D02*
X33357142Y-45257856D01*
D11*
X33500000Y-45257856D02*
X33428570Y-45186428D01*
D11*
X33500000Y-45400716D02*
X33500000Y-45257856D01*
D11*
X33428570Y-45543572D02*
X33500000Y-45400716D01*
D11*
X33357142Y-45615000D02*
X33428570Y-45543572D01*
D11*
X34642856Y-45329284D02*
X34642856Y-44329284D01*
D11*
X34714284Y-44543572D02*
X34642856Y-44757856D01*
D11*
X34857144Y-44400716D02*
X34714284Y-44543572D01*
D11*
X35000000Y-44329284D02*
X34857144Y-44400716D01*
D11*
X35214284Y-44329284D02*
X35000000Y-44329284D01*
D11*
X35571428Y-45043572D02*
X35571428Y-44329284D01*
D11*
X35642856Y-45257856D02*
X35571428Y-45043572D01*
D11*
X35785712Y-45329284D02*
X35642856Y-45257856D01*
D11*
X36000000Y-45329284D02*
X35785712Y-45329284D01*
D11*
X36142856Y-45257856D02*
X36000000Y-45329284D01*
D11*
X36357144Y-45043572D02*
X36142856Y-45257856D01*
D11*
X36357144Y-45329284D02*
X36357144Y-44329284D01*
D11*
X36928572Y-45329284D02*
X36928572Y-44329284D01*
D11*
X37142856Y-44400716D02*
X36928572Y-44615000D01*
D11*
X37285712Y-44329284D02*
X37142856Y-44400716D01*
D11*
X37500000Y-44329284D02*
X37285712Y-44329284D01*
D11*
X37642856Y-44400716D02*
X37500000Y-44329284D01*
D11*
X37714284Y-44615000D02*
X37642856Y-44400716D01*
D11*
X37714284Y-45329284D02*
X37714284Y-44615000D01*
D11*
X39642856Y-45329284D02*
X39642856Y-44329284D01*
D11*
X39500000Y-44400716D02*
X39642856Y-44543572D01*
D11*
X39357144Y-44329284D02*
X39500000Y-44400716D01*
D11*
X39142856Y-44329284D02*
X39357144Y-44329284D01*
D11*
X39000000Y-44400716D02*
X39142856Y-44329284D01*
D11*
X38857144Y-44543572D02*
X39000000Y-44400716D01*
D11*
X38785712Y-44757856D02*
X38857144Y-44543572D01*
D11*
X38785712Y-44900716D02*
X38785712Y-44757856D01*
D11*
X38857144Y-45115000D02*
X38785712Y-44900716D01*
D11*
X39000000Y-45257856D02*
X38857144Y-45115000D01*
D11*
X39142856Y-45329284D02*
X39000000Y-45257856D01*
D11*
X39357144Y-45329284D02*
X39142856Y-45329284D01*
D11*
X39500000Y-45257856D02*
X39357144Y-45329284D01*
D11*
X39642856Y-45115000D02*
X39500000Y-45257856D01*
D11*
X40857144Y-44400716D02*
X40928572Y-44543572D01*
D11*
X40642856Y-44329284D02*
X40857144Y-44400716D01*
D11*
X40428572Y-44329284D02*
X40642856Y-44329284D01*
D11*
X40214284Y-44400716D02*
X40428572Y-44329284D01*
D11*
X40142856Y-44543572D02*
X40214284Y-44400716D01*
D11*
X40214284Y-44686428D02*
X40142856Y-44543572D01*
D11*
X40357144Y-44757856D02*
X40214284Y-44686428D01*
D11*
X40714284Y-44829284D02*
X40357144Y-44757856D01*
D11*
X40857144Y-44900716D02*
X40714284Y-44829284D01*
D11*
X40928572Y-45043572D02*
X40857144Y-44900716D01*
D11*
X40928572Y-45115000D02*
X40928572Y-45043572D01*
D11*
X40857144Y-45257856D02*
X40928572Y-45115000D01*
D11*
X40642856Y-45329284D02*
X40857144Y-45257856D01*
D11*
X40428572Y-45329284D02*
X40642856Y-45329284D01*
D11*
X40214284Y-45257856D02*
X40428572Y-45329284D01*
D11*
X40142856Y-45115000D02*
X40214284Y-45257856D01*
D11*
X42714284Y-44686428D02*
X41428572Y-44686428D01*
D11*
X43285712Y-43900716D02*
X43214284Y-43829284D01*
D11*
X43357144Y-43829284D02*
X43285712Y-43900716D01*
D11*
X43285712Y-43757856D02*
X43357144Y-43829284D01*
D11*
X43214284Y-43829284D02*
X43285712Y-43757856D01*
D11*
X43285712Y-45329284D02*
X43285712Y-44329284D01*
D11*
X44500000Y-44400716D02*
X44571428Y-44543572D01*
D11*
X44285712Y-44329284D02*
X44500000Y-44400716D01*
D11*
X44071428Y-44329284D02*
X44285712Y-44329284D01*
D11*
X43857144Y-44400716D02*
X44071428Y-44329284D01*
D11*
X43785712Y-44543572D02*
X43857144Y-44400716D01*
D11*
X43857144Y-44686428D02*
X43785712Y-44543572D01*
D11*
X44000000Y-44757856D02*
X43857144Y-44686428D01*
D11*
X44357144Y-44829284D02*
X44000000Y-44757856D01*
D11*
X44500000Y-44900716D02*
X44357144Y-44829284D01*
D11*
X44571428Y-45043572D02*
X44500000Y-44900716D01*
D11*
X44571428Y-45115000D02*
X44571428Y-45043572D01*
D11*
X44500000Y-45257856D02*
X44571428Y-45115000D01*
D11*
X44285712Y-45329284D02*
X44500000Y-45257856D01*
D11*
X44071428Y-45329284D02*
X44285712Y-45329284D01*
D11*
X43857144Y-45257856D02*
X44071428Y-45329284D01*
D11*
X43785712Y-45115000D02*
X43857144Y-45257856D01*
G75*
D10*
G03*
X3499999Y32000000D02*
X0Y28500000I0J-3500000D01*
D10*
G03*
X0Y-28500000D02*
X3499999Y-32000000I3499999J0D01*
D10*
G03*
X90500000Y-32000000D02*
X94000000Y-28500000I0J3500000D01*
D10*
G03*
X94000000Y28500000D02*
X90500000Y32000000I-3500000J0D01*
M02*
