%FSLAX46Y46*%
%MOMM*%
%ADD12C,0.000000*%
%ADD10C,0.150000*%
%ADD11C,0.500000*%
G01*
%LPD*%
G01*
%LPD*%
D10*
X36190476Y-12976190D02*
X36190476Y-11976190D01*
D10*
X36619048Y-11976190D02*
X36190476Y-11976190D01*
D10*
X36761904Y-12023810D02*
X36619048Y-11976190D01*
D10*
X36809524Y-12071429D02*
X36761904Y-12023810D01*
D10*
X36857144Y-12166667D02*
X36809524Y-12071429D01*
D10*
X36857144Y-12261905D02*
X36857144Y-12166667D01*
D10*
X36809524Y-12357143D02*
X36857144Y-12261905D01*
D10*
X36761904Y-12404762D02*
X36809524Y-12357143D01*
D10*
X36619048Y-12452381D02*
X36761904Y-12404762D01*
D10*
X36190476Y-12452381D02*
X36619048Y-12452381D01*
D10*
X36857144Y-12976190D02*
X36523808Y-12452381D01*
D10*
X37142856Y-12642857D02*
X37619048Y-11976190D01*
D10*
X37857144Y-12642857D02*
X37142856Y-12642857D01*
D10*
X37619048Y-12976190D02*
X37619048Y-11976190D01*
D10*
X48633332Y-19383334D02*
X48633332Y-18883334D01*
D10*
X48666668Y-19483334D02*
X48633332Y-19383334D01*
D10*
X48733332Y-19550000D02*
X48666668Y-19483334D01*
D10*
X48833332Y-19583334D02*
X48733332Y-19550000D01*
D10*
X48900000Y-19583334D02*
X48833332Y-19583334D01*
D10*
X49000000Y-19550000D02*
X48900000Y-19583334D01*
D10*
X49066668Y-19483334D02*
X49000000Y-19550000D01*
D10*
X49100000Y-19383334D02*
X49066668Y-19483334D01*
D10*
X49100000Y-18883334D02*
X49100000Y-19383334D01*
D10*
X49500000Y-18983334D02*
X49433332Y-19016666D01*
D10*
X49600000Y-18883334D02*
X49500000Y-18983334D01*
D10*
X49600000Y-19583334D02*
X49600000Y-18883334D01*
D10*
X17409524Y-1969047D02*
X17457142Y-2064285D01*
D10*
X17314286Y-1873809D02*
X17409524Y-1969047D01*
D10*
X17219048Y-1826190D02*
X17314286Y-1873809D01*
D10*
X17028572Y-1826190D02*
X17219048Y-1826190D01*
D10*
X16933334Y-1873809D02*
X17028572Y-1826190D01*
D10*
X16838096Y-1969047D02*
X16933334Y-1873809D01*
D10*
X16790476Y-2064285D02*
X16838096Y-1969047D01*
D10*
X16742857Y-2207142D02*
X16790476Y-2064285D01*
D10*
X16742857Y-2445238D02*
X16742857Y-2207142D01*
D10*
X16790476Y-2588095D02*
X16742857Y-2445238D01*
D10*
X16838096Y-2683333D02*
X16790476Y-2588095D01*
D10*
X16933334Y-2778571D02*
X16838096Y-2683333D01*
D10*
X17028572Y-2826190D02*
X16933334Y-2778571D01*
D10*
X17219048Y-2826190D02*
X17028572Y-2826190D01*
D10*
X17314286Y-2778571D02*
X17219048Y-2826190D01*
D10*
X17409524Y-2683333D02*
X17314286Y-2778571D01*
D10*
X17457142Y-2588095D02*
X17409524Y-2683333D01*
D10*
X18314286Y-2302381D02*
X18361904Y-2159523D01*
D10*
X18219048Y-2397619D02*
X18314286Y-2302381D01*
D10*
X18076190Y-2445238D02*
X18219048Y-2397619D01*
D10*
X18028572Y-2445238D02*
X18076190Y-2445238D01*
D10*
X17885714Y-2397619D02*
X18028572Y-2445238D01*
D10*
X17790476Y-2302381D02*
X17885714Y-2397619D01*
D10*
X17742858Y-2159523D02*
X17790476Y-2302381D01*
D10*
X17742858Y-2111904D02*
X17742858Y-2159523D01*
D10*
X17790476Y-1969047D02*
X17742858Y-2111904D01*
D10*
X17885714Y-1873809D02*
X17790476Y-1969047D01*
D10*
X18028572Y-1826190D02*
X17885714Y-1873809D01*
D10*
X18076190Y-1826190D02*
X18028572Y-1826190D01*
D10*
X18219048Y-1873809D02*
X18076190Y-1826190D01*
D10*
X18314286Y-1969047D02*
X18219048Y-1873809D01*
D10*
X18361904Y-2159523D02*
X18314286Y-1969047D01*
D10*
X18361904Y-2397619D02*
X18361904Y-2159523D01*
D10*
X18314286Y-2635714D02*
X18361904Y-2397619D01*
D10*
X18219048Y-2778571D02*
X18314286Y-2635714D01*
D10*
X18076190Y-2826190D02*
X18219048Y-2778571D01*
D10*
X17980952Y-2826190D02*
X18076190Y-2826190D01*
D10*
X17838096Y-2778571D02*
X17980952Y-2826190D01*
D10*
X17790476Y-2683333D02*
X17838096Y-2778571D01*
D10*
X53869048Y-16892858D02*
X53964284Y-16845238D01*
D10*
X53773808Y-16988096D02*
X53869048Y-16892858D01*
D10*
X53726192Y-17083334D02*
X53773808Y-16988096D01*
D10*
X53726192Y-17273810D02*
X53726192Y-17083334D01*
D10*
X53773808Y-17369048D02*
X53726192Y-17273810D01*
D10*
X53869048Y-17464286D02*
X53773808Y-17369048D01*
D10*
X53964284Y-17511904D02*
X53869048Y-17464286D01*
D10*
X54107144Y-17559524D02*
X53964284Y-17511904D01*
D10*
X54345240Y-17559524D02*
X54107144Y-17559524D01*
D10*
X54488096Y-17511904D02*
X54345240Y-17559524D01*
D10*
X54583332Y-17464286D02*
X54488096Y-17511904D01*
D10*
X54678572Y-17369048D02*
X54583332Y-17464286D01*
D10*
X54726192Y-17273810D02*
X54678572Y-17369048D01*
D10*
X54726192Y-17083334D02*
X54726192Y-17273810D01*
D10*
X54678572Y-16988096D02*
X54726192Y-17083334D01*
D10*
X54583332Y-16892858D02*
X54678572Y-16988096D01*
D10*
X54488096Y-16845238D02*
X54583332Y-16892858D01*
D10*
X54726192Y-16369048D02*
X53726192Y-15892857D01*
D10*
X53726192Y-15892857D02*
X53726192Y-16559524D01*
D10*
X19804762Y2480952D02*
X19852380Y2385714D01*
D10*
X19709524Y2576190D02*
X19804762Y2480952D01*
D10*
X19614286Y2623809D02*
X19709524Y2576190D01*
D10*
X19423810Y2623809D02*
X19614286Y2623809D01*
D10*
X19328572Y2576190D02*
X19423810Y2623809D01*
D10*
X19233334Y2480952D02*
X19328572Y2576190D01*
D10*
X19185714Y2385714D02*
X19233334Y2480952D01*
D10*
X19138096Y2242857D02*
X19185714Y2385714D01*
D10*
X19138096Y2004761D02*
X19138096Y2242857D01*
D10*
X19185714Y1861904D02*
X19138096Y2004761D01*
D10*
X19233334Y1766666D02*
X19185714Y1861904D01*
D10*
X19328572Y1671428D02*
X19233334Y1766666D01*
D10*
X19423810Y1623809D02*
X19328572Y1671428D01*
D10*
X19614286Y1623809D02*
X19423810Y1623809D01*
D10*
X19709524Y1671428D02*
X19614286Y1623809D01*
D10*
X19804762Y1766666D02*
X19709524Y1671428D01*
D10*
X19852380Y1861904D02*
X19804762Y1766666D01*
D10*
X20376190Y2480952D02*
X20280952Y2433333D01*
D10*
X20519048Y2623809D02*
X20376190Y2480952D01*
D10*
X20519048Y1623809D02*
X20519048Y2623809D01*
D10*
X21233334Y2576190D02*
X21376190Y2623809D01*
D10*
X21138096Y2433333D02*
X21233334Y2576190D01*
D10*
X21090476Y2195238D02*
X21138096Y2433333D01*
D10*
X21090476Y2052381D02*
X21090476Y2195238D01*
D10*
X21138096Y1814285D02*
X21090476Y2052381D01*
D10*
X21233334Y1671428D02*
X21138096Y1814285D01*
D10*
X21376190Y1623809D02*
X21233334Y1671428D01*
D10*
X21471428Y1623809D02*
X21376190Y1623809D01*
D10*
X21614286Y1671428D02*
X21471428Y1623809D01*
D10*
X21709524Y1814285D02*
X21614286Y1671428D01*
D10*
X21757142Y2052381D02*
X21709524Y1814285D01*
D10*
X21757142Y2195238D02*
X21757142Y2052381D01*
D10*
X21709524Y2433333D02*
X21757142Y2195238D01*
D10*
X21614286Y2576190D02*
X21709524Y2433333D01*
D10*
X21471428Y2623809D02*
X21614286Y2576190D01*
D10*
X21376190Y2623809D02*
X21471428Y2623809D01*
D10*
X48107144Y-23869048D02*
X48154760Y-23964286D01*
D10*
X48011904Y-23773810D02*
X48107144Y-23869048D01*
D10*
X47916668Y-23726190D02*
X48011904Y-23773810D01*
D10*
X47726192Y-23726190D02*
X47916668Y-23726190D01*
D10*
X47630952Y-23773810D02*
X47726192Y-23726190D01*
D10*
X47535716Y-23869048D02*
X47630952Y-23773810D01*
D10*
X47488096Y-23964286D02*
X47535716Y-23869048D01*
D10*
X47440476Y-24107142D02*
X47488096Y-23964286D01*
D10*
X47440476Y-24345238D02*
X47440476Y-24107142D01*
D10*
X47488096Y-24488096D02*
X47440476Y-24345238D01*
D10*
X47535716Y-24583334D02*
X47488096Y-24488096D01*
D10*
X47630952Y-24678572D02*
X47535716Y-24583334D01*
D10*
X47726192Y-24726190D02*
X47630952Y-24678572D01*
D10*
X47916668Y-24726190D02*
X47726192Y-24726190D01*
D10*
X48011904Y-24678572D02*
X47916668Y-24726190D01*
D10*
X48107144Y-24583334D02*
X48011904Y-24678572D01*
D10*
X48154760Y-24488096D02*
X48107144Y-24583334D01*
D10*
X48535716Y-23773810D02*
X48678572Y-23726190D01*
D10*
X48488096Y-23869048D02*
X48535716Y-23773810D01*
D10*
X48488096Y-23964286D02*
X48488096Y-23869048D01*
D10*
X48535716Y-24059524D02*
X48488096Y-23964286D01*
D10*
X48630952Y-24107142D02*
X48535716Y-24059524D01*
D10*
X48821428Y-24154762D02*
X48630952Y-24107142D01*
D10*
X48964284Y-24202380D02*
X48821428Y-24154762D01*
D10*
X49059524Y-24297620D02*
X48964284Y-24202380D01*
D10*
X49107144Y-24392858D02*
X49059524Y-24297620D01*
D10*
X49107144Y-24535714D02*
X49107144Y-24392858D01*
D10*
X49059524Y-24630952D02*
X49107144Y-24535714D01*
D10*
X49011904Y-24678572D02*
X49059524Y-24630952D01*
D10*
X48869048Y-24726190D02*
X49011904Y-24678572D01*
D10*
X48678572Y-24726190D02*
X48869048Y-24726190D01*
D10*
X48535716Y-24678572D02*
X48678572Y-24726190D01*
D10*
X48488096Y-24630952D02*
X48535716Y-24678572D01*
D10*
X48440476Y-24535714D02*
X48488096Y-24630952D01*
D10*
X48440476Y-24392858D02*
X48440476Y-24535714D01*
D10*
X48488096Y-24297620D02*
X48440476Y-24392858D01*
D10*
X48583332Y-24202380D02*
X48488096Y-24297620D01*
D10*
X48726192Y-24154762D02*
X48583332Y-24202380D01*
D10*
X48916668Y-24107142D02*
X48726192Y-24154762D01*
D10*
X49011904Y-24059524D02*
X48916668Y-24107142D01*
D10*
X49059524Y-23964286D02*
X49011904Y-24059524D01*
D10*
X49059524Y-23869048D02*
X49059524Y-23964286D01*
D10*
X49011904Y-23773810D02*
X49059524Y-23869048D01*
D10*
X48869048Y-23726190D02*
X49011904Y-23773810D01*
D10*
X48678572Y-23726190D02*
X48869048Y-23726190D01*
D10*
X22340476Y-29326190D02*
X22340476Y-28326190D01*
D10*
X22769048Y-28326190D02*
X22340476Y-28326190D01*
D10*
X22911904Y-28373810D02*
X22769048Y-28326190D01*
D10*
X22959524Y-28421428D02*
X22911904Y-28373810D01*
D10*
X23007142Y-28516666D02*
X22959524Y-28421428D01*
D10*
X23007142Y-28611904D02*
X23007142Y-28516666D01*
D10*
X22959524Y-28707142D02*
X23007142Y-28611904D01*
D10*
X22911904Y-28754762D02*
X22959524Y-28707142D01*
D10*
X22769048Y-28802380D02*
X22911904Y-28754762D01*
D10*
X22340476Y-28802380D02*
X22769048Y-28802380D01*
D10*
X23007142Y-29326190D02*
X22673810Y-28802380D01*
D10*
X23340476Y-28516666D02*
X23340476Y-28564286D01*
D10*
X23388096Y-28421428D02*
X23340476Y-28516666D01*
D10*
X23435714Y-28373810D02*
X23388096Y-28421428D01*
D10*
X23530952Y-28326190D02*
X23435714Y-28373810D01*
D10*
X23721428Y-28326190D02*
X23530952Y-28326190D01*
D10*
X23816666Y-28373810D02*
X23721428Y-28326190D01*
D10*
X23864286Y-28421428D02*
X23816666Y-28373810D01*
D10*
X23911904Y-28516666D02*
X23864286Y-28421428D01*
D10*
X23911904Y-28611904D02*
X23911904Y-28516666D01*
D10*
X23864286Y-28707142D02*
X23911904Y-28611904D01*
D10*
X23769048Y-28850000D02*
X23864286Y-28707142D01*
D10*
X23292858Y-29326190D02*
X23769048Y-28850000D01*
D10*
X23959524Y-29326190D02*
X23292858Y-29326190D01*
D10*
X25488096Y-10642857D02*
X24726190Y-10642857D01*
D10*
X25630952Y-10690476D02*
X25488096Y-10642857D01*
D10*
X25678572Y-10738095D02*
X25630952Y-10690476D01*
D10*
X25726190Y-10833333D02*
X25678572Y-10738095D01*
D10*
X25726190Y-10928571D02*
X25726190Y-10833333D01*
D10*
X25678572Y-11023810D02*
X25726190Y-10928571D01*
D10*
X25630952Y-11071428D02*
X25678572Y-11023810D01*
D10*
X25488096Y-11119048D02*
X25630952Y-11071428D01*
D10*
X25392858Y-11119048D02*
X25488096Y-11119048D01*
D10*
X24869048Y-10071429D02*
X24916666Y-10166667D01*
D10*
X24726190Y-9928571D02*
X24869048Y-10071429D01*
D10*
X25726190Y-9928571D02*
X24726190Y-9928571D01*
D10*
X42238096Y-2726190D02*
X42238096Y-1726190D01*
D10*
X42666668Y-1726190D02*
X42238096Y-1726190D01*
D10*
X42809524Y-1773809D02*
X42666668Y-1726190D01*
D10*
X42857144Y-1821428D02*
X42809524Y-1773809D01*
D10*
X42904760Y-1916666D02*
X42857144Y-1821428D01*
D10*
X42904760Y-2011904D02*
X42904760Y-1916666D01*
D10*
X42857144Y-2107142D02*
X42904760Y-2011904D01*
D10*
X42809524Y-2154762D02*
X42857144Y-2107142D01*
D10*
X42666668Y-2202381D02*
X42809524Y-2154762D01*
D10*
X42238096Y-2202381D02*
X42666668Y-2202381D01*
D10*
X42904760Y-2726190D02*
X42571428Y-2202381D01*
D10*
X43761904Y-1773809D02*
X43809524Y-1869047D01*
D10*
X43619048Y-1726190D02*
X43761904Y-1773809D01*
D10*
X43523808Y-1726190D02*
X43619048Y-1726190D01*
D10*
X43380952Y-1773809D02*
X43523808Y-1726190D01*
D10*
X43285716Y-1916666D02*
X43380952Y-1773809D01*
D10*
X43238096Y-2154762D02*
X43285716Y-1916666D01*
D10*
X43238096Y-2392857D02*
X43238096Y-2154762D01*
D10*
X43285716Y-2583333D02*
X43238096Y-2392857D01*
D10*
X43380952Y-2678571D02*
X43285716Y-2583333D01*
D10*
X43523808Y-2726190D02*
X43380952Y-2678571D01*
D10*
X43571428Y-2726190D02*
X43523808Y-2726190D01*
D10*
X43714284Y-2678571D02*
X43571428Y-2726190D01*
D10*
X43809524Y-2583333D02*
X43714284Y-2678571D01*
D10*
X43857144Y-2440476D02*
X43809524Y-2583333D01*
D10*
X43857144Y-2392857D02*
X43857144Y-2440476D01*
D10*
X43809524Y-2250000D02*
X43857144Y-2392857D01*
D10*
X43714284Y-2154762D02*
X43809524Y-2250000D01*
D10*
X43571428Y-2107142D02*
X43714284Y-2154762D01*
D10*
X43523808Y-2107142D02*
X43571428Y-2107142D01*
D10*
X43380952Y-2154762D02*
X43523808Y-2107142D01*
D10*
X43285716Y-2250000D02*
X43380952Y-2154762D01*
D10*
X43238096Y-2392857D02*
X43285716Y-2250000D01*
D11*
X38142856Y-31178572D02*
X39285712Y-28178572D01*
D11*
X40428572Y-31178572D02*
X39285712Y-28178572D01*
D11*
X40000000Y-30178572D02*
X38571428Y-30178572D01*
D11*
X41142856Y-31178572D02*
X41142856Y-29178572D01*
D11*
X41571428Y-29321428D02*
X41142856Y-29750000D01*
D11*
X41857144Y-29178572D02*
X41571428Y-29321428D01*
D11*
X42285716Y-29178572D02*
X41857144Y-29178572D01*
D11*
X42571428Y-29321428D02*
X42285716Y-29178572D01*
D11*
X42714288Y-29750000D02*
X42571428Y-29321428D01*
D11*
X42714288Y-31178572D02*
X42714288Y-29750000D01*
D11*
X43142856Y-29321428D02*
X42714288Y-29750000D01*
D11*
X43428572Y-29178572D02*
X43142856Y-29321428D01*
D11*
X43857144Y-29178572D02*
X43428572Y-29178572D01*
D11*
X44142856Y-29321428D02*
X43857144Y-29178572D01*
D11*
X44285716Y-29750000D02*
X44142856Y-29321428D01*
D11*
X44285716Y-31178572D02*
X44285716Y-29750000D01*
D11*
X45428572Y-31178572D02*
X45428572Y-28178572D01*
D11*
X45714288Y-29321428D02*
X45428572Y-29607142D01*
D11*
X46000000Y-29178572D02*
X45714288Y-29321428D01*
D11*
X46428572Y-29178572D02*
X46000000Y-29178572D01*
D11*
X46714288Y-29321428D02*
X46428572Y-29178572D01*
D11*
X47000000Y-29607142D02*
X46714288Y-29321428D01*
D11*
X47142856Y-30035714D02*
X47000000Y-29607142D01*
D11*
X47142856Y-30321428D02*
X47142856Y-30035714D01*
D11*
X47000000Y-30750000D02*
X47142856Y-30321428D01*
D11*
X46714288Y-31035714D02*
X47000000Y-30750000D01*
D11*
X46428572Y-31178572D02*
X46714288Y-31035714D01*
D11*
X46000000Y-31178572D02*
X46428572Y-31178572D01*
D11*
X45714288Y-31035714D02*
X46000000Y-31178572D01*
D11*
X45428572Y-30750000D02*
X45714288Y-31035714D01*
D11*
X49714288Y-30035714D02*
X48000000Y-30035714D01*
D11*
X49714288Y-29750000D02*
X49714288Y-30035714D01*
D11*
X49571428Y-29464286D02*
X49714288Y-29750000D01*
D11*
X49428572Y-29321428D02*
X49571428Y-29464286D01*
D11*
X49142856Y-29178572D02*
X49428572Y-29321428D01*
D11*
X48714288Y-29178572D02*
X49142856Y-29178572D01*
D11*
X48428572Y-29321428D02*
X48714288Y-29178572D01*
D11*
X48142856Y-29607142D02*
X48428572Y-29321428D01*
D11*
X48000000Y-30035714D02*
X48142856Y-29607142D01*
D11*
X48000000Y-30321428D02*
X48000000Y-30035714D01*
D11*
X48142856Y-30750000D02*
X48000000Y-30321428D01*
D11*
X48428572Y-31035714D02*
X48142856Y-30750000D01*
D11*
X48714288Y-31178572D02*
X48428572Y-31035714D01*
D11*
X49142856Y-31178572D02*
X48714288Y-31178572D01*
D11*
X49428572Y-31035714D02*
X49142856Y-31178572D01*
D11*
X49714288Y-30750000D02*
X49428572Y-31035714D01*
D11*
X50714288Y-31178572D02*
X50714288Y-29178572D01*
D11*
X50857144Y-29607142D02*
X50714288Y-30035714D01*
D11*
X51142856Y-29321428D02*
X50857144Y-29607142D01*
D11*
X51428572Y-29178572D02*
X51142856Y-29321428D01*
D11*
X51857144Y-29178572D02*
X51428572Y-29178572D01*
D11*
X53714288Y-31178572D02*
X53714288Y-28178572D01*
D11*
X55000000Y-28178572D02*
X53714288Y-28178572D01*
D11*
X55428572Y-28321428D02*
X55000000Y-28178572D01*
D11*
X55571428Y-28464286D02*
X55428572Y-28321428D01*
D11*
X55714284Y-28750000D02*
X55571428Y-28464286D01*
D11*
X55714284Y-29035714D02*
X55714284Y-28750000D01*
D11*
X55571428Y-29321428D02*
X55714284Y-29035714D01*
D11*
X55428572Y-29464286D02*
X55571428Y-29321428D01*
D11*
X55000000Y-29607142D02*
X55428572Y-29464286D01*
D11*
X53714288Y-29607142D02*
X55000000Y-29607142D01*
D11*
X55714284Y-31178572D02*
X54714288Y-29607142D01*
D11*
X57285716Y-28607142D02*
X57000000Y-28750000D01*
D11*
X57714284Y-28178572D02*
X57285716Y-28607142D01*
D11*
X57714284Y-31178572D02*
X57714284Y-28178572D01*
D10*
X39357144Y-26119048D02*
X39404760Y-26214286D01*
D10*
X39261904Y-26023810D02*
X39357144Y-26119048D01*
D10*
X39166668Y-25976190D02*
X39261904Y-26023810D01*
D10*
X38976192Y-25976190D02*
X39166668Y-25976190D01*
D10*
X38880952Y-26023810D02*
X38976192Y-25976190D01*
D10*
X38785716Y-26119048D02*
X38880952Y-26023810D01*
D10*
X38738096Y-26214286D02*
X38785716Y-26119048D01*
D10*
X38690476Y-26357142D02*
X38738096Y-26214286D01*
D10*
X38690476Y-26595238D02*
X38690476Y-26357142D01*
D10*
X38738096Y-26738096D02*
X38690476Y-26595238D01*
D10*
X38785716Y-26833334D02*
X38738096Y-26738096D01*
D10*
X38880952Y-26928572D02*
X38785716Y-26833334D01*
D10*
X38976192Y-26976190D02*
X38880952Y-26928572D01*
D10*
X39166668Y-26976190D02*
X38976192Y-26976190D01*
D10*
X39261904Y-26928572D02*
X39166668Y-26976190D01*
D10*
X39357144Y-26833334D02*
X39261904Y-26928572D01*
D10*
X39404760Y-26738096D02*
X39357144Y-26833334D01*
D10*
X39690476Y-26642858D02*
X40166668Y-25976190D01*
D10*
X40404760Y-26642858D02*
X39690476Y-26642858D01*
D10*
X40166668Y-26976190D02*
X40166668Y-25976190D01*
D10*
X49238096Y-12226190D02*
X49238096Y-11226190D01*
D10*
X49666668Y-11226190D02*
X49238096Y-11226190D01*
D10*
X49809524Y-11273810D02*
X49666668Y-11226190D01*
D10*
X49857144Y-11321429D02*
X49809524Y-11273810D01*
D10*
X49904760Y-11416667D02*
X49857144Y-11321429D01*
D10*
X49904760Y-11511905D02*
X49904760Y-11416667D01*
D10*
X49857144Y-11607143D02*
X49904760Y-11511905D01*
D10*
X49809524Y-11654762D02*
X49857144Y-11607143D01*
D10*
X49666668Y-11702381D02*
X49809524Y-11654762D01*
D10*
X49238096Y-11702381D02*
X49666668Y-11702381D01*
D10*
X49904760Y-12226190D02*
X49571428Y-11702381D01*
D10*
X50380952Y-12226190D02*
X50857144Y-11226190D01*
D10*
X50857144Y-11226190D02*
X50190476Y-11226190D01*
D10*
X44357144Y27128572D02*
X43607144Y27128572D01*
D10*
X43607144Y27450000D02*
X43607144Y27128572D01*
D10*
X43642856Y27557142D02*
X43607144Y27450000D01*
D10*
X43678572Y27592858D02*
X43642856Y27557142D01*
D10*
X43750000Y27628572D02*
X43678572Y27592858D01*
D10*
X43821428Y27628572D02*
X43750000Y27628572D01*
D10*
X43892856Y27592858D02*
X43821428Y27628572D01*
D10*
X43928572Y27557142D02*
X43892856Y27592858D01*
D10*
X43964284Y27450000D02*
X43928572Y27557142D01*
D10*
X43964284Y27128572D02*
X43964284Y27450000D01*
D10*
X44357144Y27628572D02*
X43964284Y27378572D01*
D10*
X43714284Y28021428D02*
X43750000Y27950000D01*
D10*
X43607144Y28128572D02*
X43714284Y28021428D01*
D10*
X44357144Y28128572D02*
X43607144Y28128572D01*
D10*
X31809524Y23380952D02*
X31857142Y23285714D01*
D10*
X31714286Y23476190D02*
X31809524Y23380952D01*
D10*
X31619048Y23523810D02*
X31714286Y23476190D01*
D10*
X31428572Y23523810D02*
X31619048Y23523810D01*
D10*
X31333334Y23476190D02*
X31428572Y23523810D01*
D10*
X31238096Y23380952D02*
X31333334Y23476190D01*
D10*
X31190476Y23285714D02*
X31238096Y23380952D01*
D10*
X31142858Y23142858D02*
X31190476Y23285714D01*
D10*
X31142858Y22904762D02*
X31142858Y23142858D01*
D10*
X31190476Y22761904D02*
X31142858Y22904762D01*
D10*
X31238096Y22666666D02*
X31190476Y22761904D01*
D10*
X31333334Y22571428D02*
X31238096Y22666666D01*
D10*
X31428572Y22523810D02*
X31333334Y22571428D01*
D10*
X31619048Y22523810D02*
X31428572Y22523810D01*
D10*
X31714286Y22571428D02*
X31619048Y22523810D01*
D10*
X31809524Y22666666D02*
X31714286Y22571428D01*
D10*
X31857142Y22761904D02*
X31809524Y22666666D01*
D10*
X32380952Y23380952D02*
X32285714Y23333334D01*
D10*
X32523810Y23523810D02*
X32380952Y23380952D01*
D10*
X32523810Y22523810D02*
X32523810Y23523810D01*
D10*
X43257144Y-20019048D02*
X43304760Y-20114286D01*
D10*
X43161904Y-19923810D02*
X43257144Y-20019048D01*
D10*
X43066668Y-19876190D02*
X43161904Y-19923810D01*
D10*
X42876192Y-19876190D02*
X43066668Y-19876190D01*
D10*
X42780952Y-19923810D02*
X42876192Y-19876190D01*
D10*
X42685716Y-20019048D02*
X42780952Y-19923810D01*
D10*
X42638096Y-20114286D02*
X42685716Y-20019048D01*
D10*
X42590476Y-20257142D02*
X42638096Y-20114286D01*
D10*
X42590476Y-20495238D02*
X42590476Y-20257142D01*
D10*
X42638096Y-20638096D02*
X42590476Y-20495238D01*
D10*
X42685716Y-20733334D02*
X42638096Y-20638096D01*
D10*
X42780952Y-20828572D02*
X42685716Y-20733334D01*
D10*
X42876192Y-20876190D02*
X42780952Y-20828572D01*
D10*
X43066668Y-20876190D02*
X42876192Y-20876190D01*
D10*
X43161904Y-20828572D02*
X43066668Y-20876190D01*
D10*
X43257144Y-20733334D02*
X43161904Y-20828572D01*
D10*
X43304760Y-20638096D02*
X43257144Y-20733334D01*
D10*
X44161904Y-19923810D02*
X44209524Y-20019048D01*
D10*
X44019048Y-19876190D02*
X44161904Y-19923810D01*
D10*
X43923808Y-19876190D02*
X44019048Y-19876190D01*
D10*
X43780952Y-19923810D02*
X43923808Y-19876190D01*
D10*
X43685716Y-20066666D02*
X43780952Y-19923810D01*
D10*
X43638096Y-20304762D02*
X43685716Y-20066666D01*
D10*
X43638096Y-20542858D02*
X43638096Y-20304762D01*
D10*
X43685716Y-20733334D02*
X43638096Y-20542858D01*
D10*
X43780952Y-20828572D02*
X43685716Y-20733334D01*
D10*
X43923808Y-20876190D02*
X43780952Y-20828572D01*
D10*
X43971428Y-20876190D02*
X43923808Y-20876190D01*
D10*
X44114284Y-20828572D02*
X43971428Y-20876190D01*
D10*
X44209524Y-20733334D02*
X44114284Y-20828572D01*
D10*
X44257144Y-20590476D02*
X44209524Y-20733334D01*
D10*
X44257144Y-20542858D02*
X44257144Y-20590476D01*
D10*
X44209524Y-20400000D02*
X44257144Y-20542858D01*
D10*
X44114284Y-20304762D02*
X44209524Y-20400000D01*
D10*
X43971428Y-20257142D02*
X44114284Y-20304762D01*
D10*
X43923808Y-20257142D02*
X43971428Y-20257142D01*
D10*
X43780952Y-20304762D02*
X43923808Y-20257142D01*
D10*
X43685716Y-20400000D02*
X43780952Y-20304762D01*
D10*
X43638096Y-20542858D02*
X43685716Y-20400000D01*
D10*
X8769048Y-4195238D02*
X8864286Y-4147619D01*
D10*
X8673810Y-4290476D02*
X8769048Y-4195238D01*
D10*
X8626190Y-4385714D02*
X8673810Y-4290476D01*
D10*
X8626190Y-4576190D02*
X8626190Y-4385714D01*
D10*
X8673810Y-4671428D02*
X8626190Y-4576190D01*
D10*
X8769048Y-4766666D02*
X8673810Y-4671428D01*
D10*
X8864286Y-4814286D02*
X8769048Y-4766666D01*
D10*
X9007143Y-4861905D02*
X8864286Y-4814286D01*
D10*
X9245238Y-4861905D02*
X9007143Y-4861905D01*
D10*
X9388095Y-4814286D02*
X9245238Y-4861905D01*
D10*
X9483333Y-4766666D02*
X9388095Y-4814286D01*
D10*
X9578571Y-4671428D02*
X9483333Y-4766666D01*
D10*
X9626190Y-4576190D02*
X9578571Y-4671428D01*
D10*
X9626190Y-4385714D02*
X9626190Y-4576190D01*
D10*
X9578571Y-4290476D02*
X9626190Y-4385714D01*
D10*
X9483333Y-4195238D02*
X9578571Y-4290476D01*
D10*
X9388095Y-4147619D02*
X9483333Y-4195238D01*
D10*
X8769048Y-3623809D02*
X8816667Y-3719047D01*
D10*
X8626190Y-3480952D02*
X8769048Y-3623809D01*
D10*
X9626190Y-3480952D02*
X8626190Y-3480952D01*
D10*
X8769048Y-2671428D02*
X8816667Y-2766666D01*
D10*
X8626190Y-2528571D02*
X8769048Y-2671428D01*
D10*
X9626190Y-2528571D02*
X8626190Y-2528571D01*
D10*
X10985714Y5023809D02*
X10985714Y6023809D01*
D10*
X11414286Y6023809D02*
X10985714Y6023809D01*
D10*
X11557143Y5976190D02*
X11414286Y6023809D01*
D10*
X11604762Y5928571D02*
X11557143Y5976190D01*
D10*
X11652381Y5833333D02*
X11604762Y5928571D01*
D10*
X11652381Y5738095D02*
X11652381Y5833333D01*
D10*
X11604762Y5642857D02*
X11652381Y5738095D01*
D10*
X11557143Y5595238D02*
X11604762Y5642857D01*
D10*
X11414286Y5547619D02*
X11557143Y5595238D01*
D10*
X10985714Y5547619D02*
X11414286Y5547619D01*
D10*
X11652381Y5023809D02*
X11319048Y5547619D01*
D10*
X12176190Y5880952D02*
X12080952Y5833333D01*
D10*
X12319048Y6023809D02*
X12176190Y5880952D01*
D10*
X12319048Y5023809D02*
X12319048Y6023809D01*
D10*
X13128571Y5880952D02*
X13033333Y5833333D01*
D10*
X13271429Y6023809D02*
X13128571Y5880952D01*
D10*
X13271429Y5023809D02*
X13271429Y6023809D01*
D10*
X16404762Y8630952D02*
X16452381Y8535714D01*
D10*
X16309524Y8726190D02*
X16404762Y8630952D01*
D10*
X16214286Y8773810D02*
X16309524Y8726190D01*
D10*
X16023810Y8773810D02*
X16214286Y8773810D01*
D10*
X15928572Y8726190D02*
X16023810Y8773810D01*
D10*
X15833334Y8630952D02*
X15928572Y8726190D01*
D10*
X15785714Y8535714D02*
X15833334Y8630952D01*
D10*
X15738095Y8392857D02*
X15785714Y8535714D01*
D10*
X15738095Y8154762D02*
X15738095Y8392857D01*
D10*
X15785714Y8011905D02*
X15738095Y8154762D01*
D10*
X15833334Y7916666D02*
X15785714Y8011905D01*
D10*
X15928572Y7821428D02*
X15833334Y7916666D01*
D10*
X16023810Y7773809D02*
X15928572Y7821428D01*
D10*
X16214286Y7773809D02*
X16023810Y7773809D01*
D10*
X16309524Y7821428D02*
X16214286Y7773809D01*
D10*
X16404762Y7916666D02*
X16309524Y7821428D01*
D10*
X16452381Y8011905D02*
X16404762Y7916666D01*
D10*
X16976190Y8630952D02*
X16880952Y8583333D01*
D10*
X17119048Y8773810D02*
X16976190Y8630952D01*
D10*
X17119048Y7773809D02*
X17119048Y8773810D01*
D10*
X17690476Y8107143D02*
X18166666Y8773810D01*
D10*
X18404762Y8107143D02*
X17690476Y8107143D01*
D10*
X18166666Y7773809D02*
X18166666Y8773810D01*
D10*
X14869048Y-4095238D02*
X14964286Y-4047619D01*
D10*
X14773810Y-4190476D02*
X14869048Y-4095238D01*
D10*
X14726190Y-4285714D02*
X14773810Y-4190476D01*
D10*
X14726190Y-4476190D02*
X14726190Y-4285714D01*
D10*
X14773810Y-4571428D02*
X14726190Y-4476190D01*
D10*
X14869048Y-4666666D02*
X14773810Y-4571428D01*
D10*
X14964286Y-4714286D02*
X14869048Y-4666666D01*
D10*
X15107143Y-4761905D02*
X14964286Y-4714286D01*
D10*
X15345238Y-4761905D02*
X15107143Y-4761905D01*
D10*
X15488095Y-4714286D02*
X15345238Y-4761905D01*
D10*
X15583333Y-4666666D02*
X15488095Y-4714286D01*
D10*
X15678571Y-4571428D02*
X15583333Y-4666666D01*
D10*
X15726190Y-4476190D02*
X15678571Y-4571428D01*
D10*
X15726190Y-4285714D02*
X15726190Y-4476190D01*
D10*
X15678571Y-4190476D02*
X15726190Y-4285714D01*
D10*
X15583333Y-4095238D02*
X15678571Y-4190476D01*
D10*
X15488095Y-4047619D02*
X15583333Y-4095238D01*
D10*
X14869048Y-3523809D02*
X14916667Y-3619047D01*
D10*
X14726190Y-3380952D02*
X14869048Y-3523809D01*
D10*
X15726190Y-3380952D02*
X14726190Y-3380952D01*
D10*
X14726190Y-2190476D02*
X14726190Y-2714285D01*
D10*
X15107143Y-2476190D02*
X14726190Y-2190476D01*
D10*
X15107143Y-2333333D02*
X15107143Y-2476190D01*
D10*
X15154762Y-2238095D02*
X15107143Y-2333333D01*
D10*
X15202381Y-2190476D02*
X15154762Y-2238095D01*
D10*
X15345238Y-2142857D02*
X15202381Y-2190476D01*
D10*
X15440476Y-2142857D02*
X15345238Y-2142857D01*
D10*
X15583333Y-2190476D02*
X15440476Y-2142857D01*
D10*
X15678571Y-2285714D02*
X15583333Y-2190476D01*
D10*
X15726190Y-2428571D02*
X15678571Y-2285714D01*
D10*
X15726190Y-2571428D02*
X15726190Y-2428571D01*
D10*
X15678571Y-2714285D02*
X15726190Y-2571428D01*
D10*
X15630952Y-2761904D02*
X15678571Y-2714285D01*
D10*
X15535714Y-2809523D02*
X15630952Y-2761904D01*
D10*
X13983333Y2616666D02*
X13983333Y3116666D01*
D10*
X14016667Y2516666D02*
X13983333Y2616666D01*
D10*
X14083333Y2450000D02*
X14016667Y2516666D01*
D10*
X14183333Y2416666D02*
X14083333Y2450000D01*
D10*
X14250000Y2416666D02*
X14183333Y2416666D01*
D10*
X14350000Y2450000D02*
X14250000Y2416666D01*
D10*
X14416667Y2516666D02*
X14350000Y2450000D01*
D10*
X14450000Y2616666D02*
X14416667Y2516666D01*
D10*
X14450000Y3116666D02*
X14450000Y2616666D01*
D10*
X14716667Y2983333D02*
X14716667Y2950000D01*
D10*
X14750000Y3050000D02*
X14716667Y2983333D01*
D10*
X14783333Y3083333D02*
X14750000Y3050000D01*
D10*
X14850000Y3116666D02*
X14783333Y3083333D01*
D10*
X14983333Y3116666D02*
X14850000Y3116666D01*
D10*
X15050000Y3083333D02*
X14983333Y3116666D01*
D10*
X15083333Y3050000D02*
X15050000Y3083333D01*
D10*
X15116667Y2983333D02*
X15083333Y3050000D01*
D10*
X15116667Y2916666D02*
X15116667Y2983333D01*
D10*
X15083333Y2850000D02*
X15116667Y2916666D01*
D10*
X15016667Y2750000D02*
X15083333Y2850000D01*
D10*
X14683333Y2416666D02*
X15016667Y2750000D01*
D10*
X15150000Y2416666D02*
X14683333Y2416666D01*
D10*
X49240476Y-10226190D02*
X49240476Y-9226190D01*
D10*
X49669048Y-9226190D02*
X49240476Y-9226190D01*
D10*
X49811904Y-9273810D02*
X49669048Y-9226190D01*
D10*
X49859524Y-9321429D02*
X49811904Y-9273810D01*
D10*
X49907144Y-9416667D02*
X49859524Y-9321429D01*
D10*
X49907144Y-9511905D02*
X49907144Y-9416667D01*
D10*
X49859524Y-9607143D02*
X49907144Y-9511905D01*
D10*
X49811904Y-9654762D02*
X49859524Y-9607143D01*
D10*
X49669048Y-9702381D02*
X49811904Y-9654762D01*
D10*
X49240476Y-9702381D02*
X49669048Y-9702381D01*
D10*
X49907144Y-10226190D02*
X49573808Y-9702381D01*
D10*
X50288096Y-9226190D02*
X50764284Y-9226190D01*
D10*
X50240476Y-9654762D02*
X50288096Y-9226190D01*
D10*
X50288096Y-9607143D02*
X50240476Y-9654762D01*
D10*
X50430952Y-9559524D02*
X50288096Y-9607143D01*
D10*
X50573808Y-9559524D02*
X50430952Y-9559524D01*
D10*
X50716668Y-9607143D02*
X50573808Y-9559524D01*
D10*
X50811904Y-9702381D02*
X50716668Y-9607143D01*
D10*
X50859524Y-9845238D02*
X50811904Y-9702381D01*
D10*
X50859524Y-9940476D02*
X50859524Y-9845238D01*
D10*
X50811904Y-10083333D02*
X50859524Y-9940476D01*
D10*
X50716668Y-10178571D02*
X50811904Y-10083333D01*
D10*
X50573808Y-10226190D02*
X50716668Y-10178571D01*
D10*
X50430952Y-10226190D02*
X50573808Y-10226190D01*
D10*
X50288096Y-10178571D02*
X50430952Y-10226190D01*
D10*
X50240476Y-10130952D02*
X50288096Y-10178571D01*
D10*
X50192856Y-10035714D02*
X50240476Y-10130952D01*
D10*
X27690476Y-12976190D02*
X27690476Y-11976190D01*
D10*
X28119048Y-11976190D02*
X27690476Y-11976190D01*
D10*
X28261904Y-12023810D02*
X28119048Y-11976190D01*
D10*
X28309524Y-12071429D02*
X28261904Y-12023810D01*
D10*
X28357142Y-12166667D02*
X28309524Y-12071429D01*
D10*
X28357142Y-12261905D02*
X28357142Y-12166667D01*
D10*
X28309524Y-12357143D02*
X28357142Y-12261905D01*
D10*
X28261904Y-12404762D02*
X28309524Y-12357143D01*
D10*
X28119048Y-12452381D02*
X28261904Y-12404762D01*
D10*
X27690476Y-12452381D02*
X28119048Y-12452381D01*
D10*
X28357142Y-12976190D02*
X28023810Y-12452381D01*
D10*
X29261904Y-11976190D02*
X28738096Y-11976190D01*
D10*
X28976190Y-12357143D02*
X29261904Y-11976190D01*
D10*
X29119048Y-12357143D02*
X28976190Y-12357143D01*
D10*
X29214286Y-12404762D02*
X29119048Y-12357143D01*
D10*
X29261904Y-12452381D02*
X29214286Y-12404762D01*
D10*
X29309524Y-12595238D02*
X29261904Y-12452381D01*
D10*
X29309524Y-12690476D02*
X29309524Y-12595238D01*
D10*
X29261904Y-12833333D02*
X29309524Y-12690476D01*
D10*
X29166666Y-12928571D02*
X29261904Y-12833333D01*
D10*
X29023810Y-12976190D02*
X29166666Y-12928571D01*
D10*
X28880952Y-12976190D02*
X29023810Y-12976190D01*
D10*
X28738096Y-12928571D02*
X28880952Y-12976190D01*
D10*
X28690476Y-12880952D02*
X28738096Y-12928571D01*
D10*
X28642858Y-12785714D02*
X28690476Y-12880952D01*
D10*
X8319052Y1940477D02*
X8319052Y2940477D01*
D10*
X8747624Y2940477D02*
X8319052Y2940477D01*
D10*
X8890481Y2892858D02*
X8747624Y2940477D01*
D10*
X8938100Y2845239D02*
X8890481Y2892858D01*
D10*
X8985719Y2750001D02*
X8938100Y2845239D01*
D10*
X8985719Y2654763D02*
X8985719Y2750001D01*
D10*
X8938100Y2559525D02*
X8985719Y2654763D01*
D10*
X8890481Y2511906D02*
X8938100Y2559525D01*
D10*
X8747624Y2464287D02*
X8890481Y2511906D01*
D10*
X8319052Y2464287D02*
X8747624Y2464287D01*
D10*
X8985719Y1940477D02*
X8652386Y2464287D01*
D10*
X9509528Y2797620D02*
X9414290Y2750001D01*
D10*
X9652386Y2940477D02*
X9509528Y2797620D01*
D10*
X9652386Y1940477D02*
X9652386Y2940477D01*
D10*
X10366671Y2892858D02*
X10509528Y2940477D01*
D10*
X10271433Y2750001D02*
X10366671Y2892858D01*
D10*
X10223814Y2511906D02*
X10271433Y2750001D01*
D10*
X10223814Y2369049D02*
X10223814Y2511906D01*
D10*
X10271433Y2130953D02*
X10223814Y2369049D01*
D10*
X10366671Y1988096D02*
X10271433Y2130953D01*
D10*
X10509528Y1940477D02*
X10366671Y1988096D01*
D10*
X10604767Y1940477D02*
X10509528Y1940477D01*
D10*
X10747624Y1988096D02*
X10604767Y1940477D01*
D10*
X10842862Y2130953D02*
X10747624Y1988096D01*
D10*
X10890481Y2369049D02*
X10842862Y2130953D01*
D10*
X10890481Y2511906D02*
X10890481Y2369049D01*
D10*
X10842862Y2750001D02*
X10890481Y2511906D01*
D10*
X10747624Y2892858D02*
X10842862Y2750001D01*
D10*
X10604767Y2940477D02*
X10747624Y2892858D01*
D10*
X10509528Y2940477D02*
X10604767Y2940477D01*
D10*
X19804762Y3730952D02*
X19852380Y3635714D01*
D10*
X19709524Y3826190D02*
X19804762Y3730952D01*
D10*
X19614286Y3873809D02*
X19709524Y3826190D01*
D10*
X19423810Y3873809D02*
X19614286Y3873809D01*
D10*
X19328572Y3826190D02*
X19423810Y3873809D01*
D10*
X19233334Y3730952D02*
X19328572Y3826190D01*
D10*
X19185714Y3635714D02*
X19233334Y3730952D01*
D10*
X19138096Y3492857D02*
X19185714Y3635714D01*
D10*
X19138096Y3254762D02*
X19138096Y3492857D01*
D10*
X19185714Y3111904D02*
X19138096Y3254762D01*
D10*
X19233334Y3016666D02*
X19185714Y3111904D01*
D10*
X19328572Y2921428D02*
X19233334Y3016666D01*
D10*
X19423810Y2873809D02*
X19328572Y2921428D01*
D10*
X19614286Y2873809D02*
X19423810Y2873809D01*
D10*
X19709524Y2921428D02*
X19614286Y2873809D01*
D10*
X19804762Y3016666D02*
X19709524Y2921428D01*
D10*
X19852380Y3111904D02*
X19804762Y3016666D01*
D10*
X20376190Y3730952D02*
X20280952Y3683333D01*
D10*
X20519048Y3873809D02*
X20376190Y3730952D01*
D10*
X20519048Y2873809D02*
X20519048Y3873809D01*
D10*
X21138096Y3683333D02*
X21138096Y3635714D01*
D10*
X21185714Y3778571D02*
X21138096Y3683333D01*
D10*
X21233334Y3826190D02*
X21185714Y3778571D01*
D10*
X21328572Y3873809D02*
X21233334Y3826190D01*
D10*
X21519048Y3873809D02*
X21328572Y3873809D01*
D10*
X21614286Y3826190D02*
X21519048Y3873809D01*
D10*
X21661904Y3778571D02*
X21614286Y3826190D01*
D10*
X21709524Y3683333D02*
X21661904Y3778571D01*
D10*
X21709524Y3588095D02*
X21709524Y3683333D01*
D10*
X21661904Y3492857D02*
X21709524Y3588095D01*
D10*
X21566666Y3350000D02*
X21661904Y3492857D01*
D10*
X21090476Y2873809D02*
X21566666Y3350000D01*
D10*
X21757142Y2873809D02*
X21090476Y2873809D01*
D10*
X39238096Y-4642857D02*
X38476192Y-4642857D01*
D10*
X39380952Y-4690476D02*
X39238096Y-4642857D01*
D10*
X39428572Y-4738095D02*
X39380952Y-4690476D01*
D10*
X39476192Y-4833333D02*
X39428572Y-4738095D01*
D10*
X39476192Y-4928571D02*
X39476192Y-4833333D01*
D10*
X39428572Y-5023809D02*
X39476192Y-4928571D01*
D10*
X39380952Y-5071428D02*
X39428572Y-5023809D01*
D10*
X39238096Y-5119047D02*
X39380952Y-5071428D01*
D10*
X39142856Y-5119047D02*
X39238096Y-5119047D01*
D10*
X38476192Y-3690476D02*
X38476192Y-4214285D01*
D10*
X38857144Y-3976190D02*
X38476192Y-3690476D01*
D10*
X38857144Y-3833333D02*
X38857144Y-3976190D01*
D10*
X38904760Y-3738095D02*
X38857144Y-3833333D01*
D10*
X38952380Y-3690476D02*
X38904760Y-3738095D01*
D10*
X39095240Y-3642857D02*
X38952380Y-3690476D01*
D10*
X39190476Y-3642857D02*
X39095240Y-3642857D01*
D10*
X39333332Y-3690476D02*
X39190476Y-3642857D01*
D10*
X39428572Y-3785714D02*
X39333332Y-3690476D01*
D10*
X39476192Y-3928571D02*
X39428572Y-3785714D01*
D10*
X39476192Y-4071428D02*
X39476192Y-3928571D01*
D10*
X39428572Y-4214285D02*
X39476192Y-4071428D01*
D10*
X39380952Y-4261905D02*
X39428572Y-4214285D01*
D10*
X39285716Y-4309524D02*
X39380952Y-4261905D01*
D10*
X21988096Y523809D02*
X21988096Y1523809D01*
D10*
X22416666Y1523809D02*
X21988096Y1523809D01*
D10*
X22559524Y1476190D02*
X22416666Y1523809D01*
D10*
X22607142Y1428571D02*
X22559524Y1476190D01*
D10*
X22654762Y1333333D02*
X22607142Y1428571D01*
D10*
X22654762Y1238095D02*
X22654762Y1333333D01*
D10*
X22607142Y1142857D02*
X22654762Y1238095D01*
D10*
X22559524Y1095238D02*
X22607142Y1142857D01*
D10*
X22416666Y1047619D02*
X22559524Y1095238D01*
D10*
X21988096Y1047619D02*
X22416666Y1047619D01*
D10*
X22654762Y523809D02*
X22321428Y1047619D01*
D10*
X23511904Y1047619D02*
X23559524Y1190476D01*
D10*
X23416666Y952380D02*
X23511904Y1047619D01*
D10*
X23273810Y904761D02*
X23416666Y952380D01*
D10*
X23226190Y904761D02*
X23273810Y904761D01*
D10*
X23083334Y952380D02*
X23226190Y904761D01*
D10*
X22988096Y1047619D02*
X23083334Y952380D01*
D10*
X22940476Y1190476D02*
X22988096Y1047619D01*
D10*
X22940476Y1238095D02*
X22940476Y1190476D01*
D10*
X22988096Y1380952D02*
X22940476Y1238095D01*
D10*
X23083334Y1476190D02*
X22988096Y1380952D01*
D10*
X23226190Y1523809D02*
X23083334Y1476190D01*
D10*
X23273810Y1523809D02*
X23226190Y1523809D01*
D10*
X23416666Y1476190D02*
X23273810Y1523809D01*
D10*
X23511904Y1380952D02*
X23416666Y1476190D01*
D10*
X23559524Y1190476D02*
X23511904Y1380952D01*
D10*
X23559524Y952380D02*
X23559524Y1190476D01*
D10*
X23511904Y714285D02*
X23559524Y952380D01*
D10*
X23416666Y571428D02*
X23511904Y714285D01*
D10*
X23273810Y523809D02*
X23416666Y571428D01*
D10*
X23178572Y523809D02*
X23273810Y523809D01*
D10*
X23035714Y571428D02*
X23178572Y523809D01*
D10*
X22988096Y666666D02*
X23035714Y571428D01*
D10*
X21476190Y-759523D02*
X20476190Y-759523D01*
D10*
X20476190Y-330952D02*
X20476190Y-759523D01*
D10*
X20523810Y-188095D02*
X20476190Y-330952D01*
D10*
X20571428Y-140476D02*
X20523810Y-188095D01*
D10*
X20666666Y-92857D02*
X20571428Y-140476D01*
D10*
X20761904Y-92857D02*
X20666666Y-92857D01*
D10*
X20857142Y-140476D02*
X20761904Y-92857D01*
D10*
X20904762Y-188095D02*
X20857142Y-140476D01*
D10*
X20952380Y-330952D02*
X20904762Y-188095D01*
D10*
X20952380Y-759523D02*
X20952380Y-330952D01*
D10*
X21476190Y-92857D02*
X20952380Y-426190D01*
D10*
X20523810Y288095D02*
X20476190Y430952D01*
D10*
X20619048Y240476D02*
X20523810Y288095D01*
D10*
X20714286Y240476D02*
X20619048Y240476D01*
D10*
X20809524Y288095D02*
X20714286Y240476D01*
D10*
X20857142Y383333D02*
X20809524Y288095D01*
D10*
X20904762Y573809D02*
X20857142Y383333D01*
D10*
X20952380Y716666D02*
X20904762Y573809D01*
D10*
X21047620Y811904D02*
X20952380Y716666D01*
D10*
X21142858Y859523D02*
X21047620Y811904D01*
D10*
X21285714Y859523D02*
X21142858Y859523D01*
D10*
X21380952Y811904D02*
X21285714Y859523D01*
D10*
X21428572Y764285D02*
X21380952Y811904D01*
D10*
X21476190Y621428D02*
X21428572Y764285D01*
D10*
X21476190Y430952D02*
X21476190Y621428D01*
D10*
X21428572Y288095D02*
X21476190Y430952D01*
D10*
X21380952Y240476D02*
X21428572Y288095D01*
D10*
X21285714Y192857D02*
X21380952Y240476D01*
D10*
X21142858Y192857D02*
X21285714Y192857D01*
D10*
X21047620Y240476D02*
X21142858Y192857D01*
D10*
X20952380Y335714D02*
X21047620Y240476D01*
D10*
X20904762Y478571D02*
X20952380Y335714D01*
D10*
X20857142Y669047D02*
X20904762Y478571D01*
D10*
X20809524Y764285D02*
X20857142Y669047D01*
D10*
X20714286Y811904D02*
X20809524Y764285D01*
D10*
X20619048Y811904D02*
X20714286Y811904D01*
D10*
X20523810Y764285D02*
X20619048Y811904D01*
D10*
X20476190Y621428D02*
X20523810Y764285D01*
D10*
X20476190Y430952D02*
X20476190Y621428D01*
D10*
X30857142Y-26119048D02*
X30904762Y-26214286D01*
D10*
X30761904Y-26023810D02*
X30857142Y-26119048D01*
D10*
X30666666Y-25976190D02*
X30761904Y-26023810D01*
D10*
X30476190Y-25976190D02*
X30666666Y-25976190D01*
D10*
X30380952Y-26023810D02*
X30476190Y-25976190D01*
D10*
X30285714Y-26119048D02*
X30380952Y-26023810D01*
D10*
X30238096Y-26214286D02*
X30285714Y-26119048D01*
D10*
X30190476Y-26357142D02*
X30238096Y-26214286D01*
D10*
X30190476Y-26595238D02*
X30190476Y-26357142D01*
D10*
X30238096Y-26738096D02*
X30190476Y-26595238D01*
D10*
X30285714Y-26833334D02*
X30238096Y-26738096D01*
D10*
X30380952Y-26928572D02*
X30285714Y-26833334D01*
D10*
X30476190Y-26976190D02*
X30380952Y-26928572D01*
D10*
X30666666Y-26976190D02*
X30476190Y-26976190D01*
D10*
X30761904Y-26928572D02*
X30666666Y-26976190D01*
D10*
X30857142Y-26833334D02*
X30761904Y-26928572D01*
D10*
X30904762Y-26738096D02*
X30857142Y-26833334D01*
D10*
X31809524Y-25976190D02*
X31285714Y-25976190D01*
D10*
X31523810Y-26357142D02*
X31809524Y-25976190D01*
D10*
X31666666Y-26357142D02*
X31523810Y-26357142D01*
D10*
X31761904Y-26404762D02*
X31666666Y-26357142D01*
D10*
X31809524Y-26452380D02*
X31761904Y-26404762D01*
D10*
X31857142Y-26595238D02*
X31809524Y-26452380D01*
D10*
X31857142Y-26690476D02*
X31857142Y-26595238D01*
D10*
X31809524Y-26833334D02*
X31857142Y-26690476D01*
D10*
X31714286Y-26928572D02*
X31809524Y-26833334D01*
D10*
X31571428Y-26976190D02*
X31714286Y-26928572D01*
D10*
X31428572Y-26976190D02*
X31571428Y-26976190D01*
D10*
X31285714Y-26928572D02*
X31428572Y-26976190D01*
D10*
X31238096Y-26880952D02*
X31285714Y-26928572D01*
D10*
X31190476Y-26785714D02*
X31238096Y-26880952D01*
D10*
X49269048Y-14492857D02*
X49364284Y-14445238D01*
D10*
X49173808Y-14588095D02*
X49269048Y-14492857D01*
D10*
X49126192Y-14683333D02*
X49173808Y-14588095D01*
D10*
X49126192Y-14873810D02*
X49126192Y-14683333D01*
D10*
X49173808Y-14969048D02*
X49126192Y-14873810D01*
D10*
X49269048Y-15064286D02*
X49173808Y-14969048D01*
D10*
X49364284Y-15111905D02*
X49269048Y-15064286D01*
D10*
X49507144Y-15159524D02*
X49364284Y-15111905D01*
D10*
X49745240Y-15159524D02*
X49507144Y-15159524D01*
D10*
X49888096Y-15111905D02*
X49745240Y-15159524D01*
D10*
X49983332Y-15064286D02*
X49888096Y-15111905D01*
D10*
X50078572Y-14969048D02*
X49983332Y-15064286D01*
D10*
X50126192Y-14873810D02*
X50078572Y-14969048D01*
D10*
X50126192Y-14683333D02*
X50126192Y-14873810D01*
D10*
X50078572Y-14588095D02*
X50126192Y-14683333D01*
D10*
X49983332Y-14492857D02*
X50078572Y-14588095D01*
D10*
X49888096Y-14445238D02*
X49983332Y-14492857D01*
D10*
X49126192Y-14064286D02*
X49126192Y-13588095D01*
D10*
X49554760Y-14111905D02*
X49126192Y-14064286D01*
D10*
X49507144Y-14064286D02*
X49554760Y-14111905D01*
D10*
X49459524Y-13921429D02*
X49507144Y-14064286D01*
D10*
X49459524Y-13778571D02*
X49459524Y-13921429D01*
D10*
X49507144Y-13635714D02*
X49459524Y-13778571D01*
D10*
X49602380Y-13540476D02*
X49507144Y-13635714D01*
D10*
X49745240Y-13492857D02*
X49602380Y-13540476D01*
D10*
X49840476Y-13492857D02*
X49745240Y-13492857D01*
D10*
X49983332Y-13540476D02*
X49840476Y-13492857D01*
D10*
X50078572Y-13635714D02*
X49983332Y-13540476D01*
D10*
X50126192Y-13778571D02*
X50078572Y-13635714D01*
D10*
X50126192Y-13921429D02*
X50126192Y-13778571D01*
D10*
X50078572Y-14064286D02*
X50126192Y-13921429D01*
D10*
X50030952Y-14111905D02*
X50078572Y-14064286D01*
D10*
X49935716Y-14159524D02*
X50030952Y-14111905D01*
D10*
X36800000Y-4500000D02*
X36800000Y-3350000D01*
D10*
X30150000Y-4500000D02*
X30150000Y-3350000D01*
D10*
X30150000Y-9150000D02*
X31150000Y-9150000D01*
D10*
X36800000Y-8000000D02*
X36800000Y-9150000D01*
D10*
X36800000Y-4500000D02*
X38000000Y-4500000D01*
D10*
X36800000Y-9150000D02*
X35800000Y-9150000D01*
D10*
X30150000Y-8000000D02*
X30150000Y-9150000D01*
D10*
X36800000Y-3350000D02*
X35800000Y-3350000D01*
D10*
X30150000Y-3350000D02*
X31150000Y-3350000D01*
D10*
X9445000Y15719491D02*
X9445000Y18280509D01*
D10*
X4719491Y13555000D02*
X7280509Y13555000D01*
D10*
X7280509Y20445000D02*
X4719491Y20445000D01*
D10*
X6357143Y11761905D02*
X6357143Y12523810D01*
D10*
X6309524Y11619048D02*
X6357143Y11761905D01*
D10*
X6261905Y11571429D02*
X6309524Y11619048D01*
D10*
X6166667Y11523810D02*
X6261905Y11571429D01*
D10*
X6071428Y11523810D02*
X6166667Y11523810D01*
D10*
X5976190Y11571429D02*
X6071428Y11523810D01*
D10*
X5928571Y11619048D02*
X5976190Y11571429D01*
D10*
X5880952Y11761905D02*
X5928571Y11619048D01*
D10*
X5880952Y11857143D02*
X5880952Y11761905D01*
D10*
X6690476Y11857143D02*
X7166666Y12523810D01*
D10*
X7404762Y11857143D02*
X6690476Y11857143D01*
D10*
X7166666Y11523810D02*
X7166666Y12523810D01*
D10*
X10725000Y-1475001D02*
X10725000Y-1775000D01*
D10*
X10725000Y1775000D02*
X10725000Y1475001D01*
D10*
X14275000Y1775000D02*
X10725000Y1775000D01*
D10*
X14275000Y-1475001D02*
X14750000Y-1475000D01*
D10*
X14275000Y1475001D02*
X14275000Y1775000D01*
D10*
X14275000Y-1775000D02*
X14275000Y-1475001D01*
D10*
X10725000Y-1775000D02*
X14275000Y-1775000D01*
D10*
X47275000Y-15524999D02*
X47275000Y-15225000D01*
D10*
X47275000Y-18775000D02*
X47275000Y-18475001D01*
D10*
X43725000Y-18775000D02*
X47275000Y-18775000D01*
D10*
X43725000Y-15524999D02*
X43250000Y-15525000D01*
D10*
X43725000Y-18475001D02*
X43725000Y-18775000D01*
D10*
X43725000Y-15225000D02*
X43725000Y-15524999D01*
D10*
X47275000Y-15225000D02*
X43725000Y-15225000D01*
D10*
X48250000Y-20250000D02*
X46250000Y-20250000D01*
D10*
X48250000Y-23250000D02*
X46250000Y-23250000D01*
D10*
X11250000Y-3000000D02*
X11250000Y-5000000D01*
D10*
X14250000Y-3000000D02*
X14250000Y-5000000D01*
D10*
X38974999Y22025000D02*
X33386091Y22025000D01*
D10*
X42025001Y2475000D02*
X50275000Y2475000D01*
D10*
X30725000Y2475000D02*
X38974999Y2475000D01*
D10*
X30725000Y19363909D02*
X30725000Y2475000D01*
D10*
X50275000Y2475000D02*
X50275000Y19363909D01*
D10*
X50275000Y19363909D02*
X47613909Y22025000D01*
D10*
X33386091Y22025000D02*
X30725000Y19363909D01*
D10*
X47613909Y22025000D02*
X42025001Y22025000D01*
D10*
X18250000Y7250000D02*
X16250000Y7250000D01*
D10*
X18250000Y4250000D02*
X16250000Y4250000D01*
D10*
X6816000Y6775000D02*
X3684000Y6775000D01*
D10*
X1660190Y5013095D02*
X660190Y5013095D01*
D10*
X660190Y5346428D02*
X660190Y5013095D01*
D10*
X707809Y5489286D02*
X660190Y5346428D01*
D10*
X803047Y5584524D02*
X707809Y5489286D01*
D10*
X898285Y5632143D02*
X803047Y5584524D01*
D10*
X1041142Y5679762D02*
X898285Y5632143D01*
D10*
X1279238Y5679762D02*
X1041142Y5679762D01*
D10*
X1422095Y5632143D02*
X1279238Y5679762D01*
D10*
X1517333Y5584524D02*
X1422095Y5632143D01*
D10*
X1612571Y5489286D02*
X1517333Y5584524D01*
D10*
X1660190Y5346428D02*
X1612571Y5489286D01*
D10*
X1660190Y5013095D02*
X1660190Y5346428D01*
D10*
X850666Y6013095D02*
X898285Y6013095D01*
D10*
X755428Y6060714D02*
X850666Y6013095D01*
D10*
X707809Y6108333D02*
X755428Y6060714D01*
D10*
X660190Y6203571D02*
X707809Y6108333D01*
D10*
X660190Y6394047D02*
X660190Y6203571D01*
D10*
X707809Y6489285D02*
X660190Y6394047D01*
D10*
X755428Y6536905D02*
X707809Y6489285D01*
D10*
X850666Y6584524D02*
X755428Y6536905D01*
D10*
X945904Y6584524D02*
X850666Y6584524D01*
D10*
X1041142Y6536905D02*
X945904Y6584524D01*
D10*
X1184000Y6441666D02*
X1041142Y6536905D01*
D10*
X1660190Y5965476D02*
X1184000Y6441666D01*
D10*
X1660190Y6632143D02*
X1660190Y5965476D01*
D10*
X50250000Y-16750000D02*
X50250000Y-18750000D01*
D10*
X53250000Y-16750000D02*
X53250000Y-18750000D01*
D10*
X73025001Y2475000D02*
X78613909Y2475000D01*
D10*
X69974999Y22025000D02*
X61725000Y22025000D01*
D10*
X81275000Y22025000D02*
X73025001Y22025000D01*
D10*
X81275000Y5136091D02*
X81275000Y22025000D01*
D10*
X61725000Y22025000D02*
X61725000Y5136091D01*
D10*
X61725000Y5136091D02*
X64386091Y2475000D01*
D10*
X78613909Y2475000D02*
X81275000Y5136091D01*
D10*
X64386091Y2475000D02*
X69974999Y2475000D01*
D10*
X76857144Y1630952D02*
X76904760Y1535714D01*
D10*
X76761904Y1726190D02*
X76857144Y1630952D01*
D10*
X76666664Y1773809D02*
X76761904Y1726190D01*
D10*
X76476192Y1773809D02*
X76666664Y1773809D01*
D10*
X76380952Y1726190D02*
X76476192Y1773809D01*
D10*
X76285712Y1630952D02*
X76380952Y1726190D01*
D10*
X76238096Y1535714D02*
X76285712Y1630952D01*
D10*
X76190480Y1392857D02*
X76238096Y1535714D01*
D10*
X76190480Y1154761D02*
X76190480Y1392857D01*
D10*
X76238096Y1011904D02*
X76190480Y1154761D01*
D10*
X76285712Y916666D02*
X76238096Y1011904D01*
D10*
X76380952Y821428D02*
X76285712Y916666D01*
D10*
X76476192Y773809D02*
X76380952Y821428D01*
D10*
X76666664Y773809D02*
X76476192Y773809D01*
D10*
X76761904Y821428D02*
X76666664Y773809D01*
D10*
X76857144Y916666D02*
X76761904Y821428D01*
D10*
X76904760Y1011904D02*
X76857144Y916666D01*
D10*
X77238096Y1583333D02*
X77238096Y1535714D01*
D10*
X77285712Y1678571D02*
X77238096Y1583333D01*
D10*
X77333336Y1726190D02*
X77285712Y1678571D01*
D10*
X77428568Y1773809D02*
X77333336Y1726190D01*
D10*
X77619048Y1773809D02*
X77428568Y1773809D01*
D10*
X77714288Y1726190D02*
X77619048Y1773809D01*
D10*
X77761904Y1678571D02*
X77714288Y1726190D01*
D10*
X77809520Y1583333D02*
X77761904Y1678571D01*
D10*
X77809520Y1488095D02*
X77809520Y1583333D01*
D10*
X77761904Y1392857D02*
X77809520Y1488095D01*
D10*
X77666664Y1250000D02*
X77761904Y1392857D01*
D10*
X77190480Y773809D02*
X77666664Y1250000D01*
D10*
X77857144Y773809D02*
X77190480Y773809D01*
D10*
X50225000Y27274999D02*
X50225000Y25325000D01*
D10*
X50225000Y25325000D02*
X52724999Y25325000D01*
D10*
X52910497Y31725000D02*
X50225000Y31725000D01*
D10*
X62775000Y25325000D02*
X62775000Y27274999D01*
D10*
X60089503Y31725000D02*
X58889503Y30575000D01*
D10*
X58889503Y30575000D02*
X54110497Y30575000D01*
D10*
X56275001Y25325000D02*
X56724999Y25325000D01*
D10*
X62775000Y31725000D02*
X60089503Y31725000D01*
D10*
X52724999Y25325000D02*
X52725000Y24000000D01*
D10*
X60275001Y25325000D02*
X62775000Y25325000D01*
D10*
X58275001Y25325000D02*
X58724999Y25325000D01*
D10*
X54275001Y25325000D02*
X54724999Y25325000D01*
D10*
X54110497Y30575000D02*
X52910497Y31725000D01*
D10*
X50821428Y22261904D02*
X50821428Y23023810D01*
D10*
X50773808Y22119048D02*
X50821428Y22261904D01*
D10*
X50726192Y22071428D02*
X50773808Y22119048D01*
D10*
X50630952Y22023810D02*
X50726192Y22071428D01*
D10*
X50535716Y22023810D02*
X50630952Y22023810D01*
D10*
X50440476Y22071428D02*
X50535716Y22023810D01*
D10*
X50392856Y22119048D02*
X50440476Y22071428D01*
D10*
X50345240Y22261904D02*
X50392856Y22119048D01*
D10*
X50345240Y22357142D02*
X50345240Y22261904D01*
D10*
X51202380Y22833334D02*
X51202380Y22785714D01*
D10*
X51250000Y22928572D02*
X51202380Y22833334D01*
D10*
X51297620Y22976190D02*
X51250000Y22928572D01*
D10*
X51392856Y23023810D02*
X51297620Y22976190D01*
D10*
X51583332Y23023810D02*
X51392856Y23023810D01*
D10*
X51678572Y22976190D02*
X51583332Y23023810D01*
D10*
X51726192Y22928572D02*
X51678572Y22976190D01*
D10*
X51773808Y22833334D02*
X51726192Y22928572D01*
D10*
X51773808Y22738096D02*
X51773808Y22833334D01*
D10*
X51726192Y22642858D02*
X51773808Y22738096D01*
D10*
X51630952Y22500000D02*
X51726192Y22642858D01*
D10*
X51154760Y22023810D02*
X51630952Y22500000D01*
D10*
X51821428Y22023810D02*
X51154760Y22023810D01*
D10*
X22200000Y-27750000D02*
X23800000Y-27750000D01*
D10*
X22200000Y-25750000D02*
X23800000Y-25750000D01*
D10*
X6816000Y-1225000D02*
X3684000Y-1225000D01*
D10*
X1660190Y-2986904D02*
X660190Y-2986904D01*
D10*
X660190Y-2653571D02*
X660190Y-2986904D01*
D10*
X707809Y-2510714D02*
X660190Y-2653571D01*
D10*
X803047Y-2415476D02*
X707809Y-2510714D01*
D10*
X898285Y-2367857D02*
X803047Y-2415476D01*
D10*
X1041142Y-2320238D02*
X898285Y-2367857D01*
D10*
X1279238Y-2320238D02*
X1041142Y-2320238D01*
D10*
X1422095Y-2367857D02*
X1279238Y-2320238D01*
D10*
X1517333Y-2415476D02*
X1422095Y-2367857D01*
D10*
X1612571Y-2510714D02*
X1517333Y-2415476D01*
D10*
X1660190Y-2653571D02*
X1612571Y-2510714D01*
D10*
X1660190Y-2986904D02*
X1660190Y-2653571D01*
D10*
X803047Y-1796428D02*
X850666Y-1891666D01*
D10*
X660190Y-1653571D02*
X803047Y-1796428D01*
D10*
X1660190Y-1653571D02*
X660190Y-1653571D01*
D12*
X45000000Y-16500000D02*
X45000000Y-16500000D01*
D10*
X24270000Y-11620000D02*
X24270000Y-9370000D01*
D10*
X48640000Y-3360000D02*
X38360000Y-3360000D01*
D10*
X48640000Y-13640000D02*
X48640000Y-3360000D01*
D10*
X24270000Y-9370000D02*
X22000000Y-9370000D01*
G75*
D10*
G03*
X5250000Y775000D02*
X6816000Y6775000I-5043J3205679D01*
D10*
G03*
X3684000Y6775000D02*
X5250000Y775000I1571042J-2794321D01*
D10*
G03*
X5250000Y-7225000D02*
X6816000Y-1225000I-5043J3205680D01*
D10*
G03*
X3684000Y-1225000D02*
X5250000Y-7225000I1571042J-2794320D01*
M02*
