M48
FMAT,2
METRIC,TZ
T9C0.200
T8C0.610
T6C0.889
T7C0.900
T4C1.470
T2C1.500
T1C1.600
T5C2.007
T3C3.400
%
G90
G05
M71
T9
X47.250Y-8.500
X27.000Y0.000
X13.750Y-6.500
X50.000Y-19.250
X55.500Y27.000
X27.000Y-25.000
X42.250Y8.750
X41.500Y-13.750
X18.750Y1.500
X52.000Y22.750
X45.000Y9.000
X19.750Y5.750
X60.000Y-30.000
X63.000Y-9.000
X19.750Y6.750
X69.750Y7.000
X11.750Y-6.500
X55.500Y23.000
X54.000Y-9.000
X25.250Y-26.750
X44.250Y-15.250
X11.500Y-4.000
X1.000Y10.000
X1.000Y20.000
X69.750Y8.500
X29.000Y-25.000
X44.750Y-8.500
X50.250Y-17.750
X38.750Y-25.000
X38.750Y5.500
X58.250Y27.000
X10.000Y30.000
X46.250Y-18.750
X44.500Y26.250
X19.750Y-14.750
X53.500Y-19.250
X54.000Y-27.000
X50.250Y-15.500
X46.000Y27.000
X9.500Y1.750
X10.750Y-1.500
X41.500Y-23.250
X27.000Y27.000
X45.750Y-18.750
X81.000Y-30.000
X72.000Y-30.000
X81.000Y0.000
X48.750Y-20.000
X38.750Y3.750
X90.000Y9.000
X34.000Y-25.000
X11.500Y-1.500
X49.750Y-22.750
X25.250Y-26.000
X44.250Y-19.250
X24.750Y-23.000
X42.250Y7.250
X81.000Y-9.000
X21.000Y30.000
X15.000Y4.000
X45.000Y18.000
X73.250Y5.500
X31.750Y-13.750
X73.250Y8.500
X9.250Y1.000
X41.500Y1.250
X50.750Y-20.250
X70.500Y1.250
X42.500Y-18.750
X93.000Y-9.000
X30.250Y-13.750
X63.000Y18.000
X48.750Y-15.500
X9.000Y-18.000
X71.500Y1.250
X19.750Y-13.750
X54.250Y21.500
X72.000Y-9.000
X48.750Y-18.000
X36.000Y0.000
X3.750Y15.000
X54.000Y-18.000
X93.000Y0.000
X63.000Y9.000
X42.750Y-13.750
X48.750Y-23.500
X18.000Y-18.000
X63.000Y-18.000
X9.000Y27.000
X73.250Y7.000
X41.500Y9.750
X51.750Y-20.250
X49.500Y-15.500
X20.500Y-18.000
X73.250Y4.000
X41.500Y-22.250
X71.500Y9.750
X21.250Y-13.750
X49.750Y30.000
X37.750Y-25.000
X33.250Y-13.750
X54.750Y23.000
X47.750Y-18.500
X9.000Y-9.000
X15.500Y3.500
X30.000Y30.000
X56.500Y27.000
X39.000Y-13.750
X28.500Y-13.750
X47.250Y-20.500
X43.250Y-19.250
X66.000Y30.000
X81.000Y-27.000
X49.750Y-21.750
X24.750Y-25.000
X40.000Y-30.000
X90.000Y-18.000
X20.000Y-30.000
X18.000Y-27.000
X93.000Y9.000
X35.000Y-8.000
X18.000Y18.000
X23.500Y-26.750
X72.000Y0.000
X41.500Y-21.250
X27.000Y-27.000
X18.000Y27.000
X44.500Y27.000
X60.000Y22.000
X18.000Y-9.000
X23.500Y-26.250
X56.500Y23.000
X25.250Y-27.500
X90.000Y18.000
X41.500Y-24.250
X57.500Y27.000
X15.000Y3.500
X19.750Y-17.500
X40.250Y-13.750
X44.250Y-16.250
X19.750Y4.750
X42.250Y5.500
X81.000Y-18.000
X24.750Y-24.000
X9.000Y-27.000
X58.250Y23.000
X84.000Y30.000
X54.750Y27.000
X22.500Y-13.750
X32.750Y-25.000
X52.750Y-20.250
X37.750Y-13.750
X51.750Y21.500
X40.000Y30.000
X28.000Y-25.000
X11.000Y-5.500
X92.500Y18.000
X36.000Y9.000
X39.500Y9.750
X19.750Y-15.750
X72.000Y30.000
X1.000Y-10.000
X73.250Y2.000
X50.000Y-30.000
X46.000Y26.250
X18.750Y4.000
X25.500Y-25.000
X36.750Y-25.000
X27.000Y9.000
X9.000Y9.000
X90.000Y0.000
X36.000Y-27.000
X59.000Y21.500
X41.000Y-25.000
X38.750Y8.750
X35.000Y-7.250
X27.000Y18.000
X41.500Y-20.250
X42.250Y3.750
X30.000Y-30.000
X54.000Y9.000
X53.000Y22.000
X24.000Y-13.750
X24.000Y-18.000
X72.500Y9.750
X72.500Y1.250
X45.000Y0.000
X41.500Y-19.250
X27.000Y-13.750
X57.500Y23.000
X72.000Y-18.000
X81.000Y9.000
X54.000Y18.000
X23.000Y-18.000
X78.000Y30.000
X45.000Y-27.000
X1.000Y-20.000
X61.000Y21.500
X39.750Y-25.000
X18.000Y9.000
X24.750Y-20.000
X34.750Y-13.750
X69.750Y4.000
X48.000Y-19.500
X70.500Y9.750
X45.250Y-18.750
X18.750Y7.500
X49.750Y-20.750
X41.500Y-25.000
X92.500Y-18.000
X10.000Y-1.500
X69.750Y5.500
X6.000Y-25.500
X14.500Y-5.500
X24.750Y-21.000
X36.250Y-13.750
X72.000Y-27.000
X9.750Y-4.000
X30.000Y-25.000
X42.250Y2.000
X40.500Y1.250
X3.000Y0.000
X48.500Y-18.500
X25.500Y-13.750
X63.000Y27.000
X39.500Y1.250
X10.000Y-30.000
X23.500Y-27.250
X27.000Y-9.000
X35.500Y-25.000
X15.000Y30.000
X35.000Y-6.500
X45.250Y26.250
X31.000Y-25.000
X38.750Y2.000
X63.000Y-27.000
X61.000Y22.750
X19.750Y-16.750
X60.000Y30.000
X24.750Y-22.000
X38.750Y7.250
X69.750Y2.000
X10.500Y1.750
X40.500Y9.750
X12.750Y-6.500
X90.000Y-9.000
X43.750Y-13.750
X54.000Y0.000
X1.000Y0.000
X3.000Y20.000
X18.750Y2.750
T8
X46.040Y-8.515
X43.500Y-11.055
X40.960Y-8.515
T6
X21.446Y-17.000
X21.446Y-19.540
T7
X5.250Y2.730
X5.250Y5.270
X5.250Y-5.270
X5.250Y-2.730
T4
X34.985Y24.740
X47.685Y24.740
X65.735Y24.740
X78.435Y24.740
T2
X6.000Y17.000
T1
X3.460Y14.460
X8.540Y14.460
X8.540Y19.540
X3.460Y19.540
T5
X16.366Y-22.080
X16.366Y-11.920
T3
X90.500Y28.500
X3.500Y-28.500
X3.500Y28.500
X90.500Y-28.500
M30
