%FSLAX46Y46*%
%MOMM*%
%AMPS28*
1,1,3.153000,0.000000,0.000000*
%
%ADD28PS28*%
%AMPS13*
1,1,2.740000,0.000000,0.000000*
%
%ADD13PS13*%
%AMPS29*
1,1,1.940000,0.000000,0.000000*
%
%ADD29PS29*%
%AMPS22*
1,1,2.610000,0.000000,0.000000*
%
%ADD22PS22*%
%AMPS14*
1,1,2.640000,0.000000,0.000000*
%
%ADD14PS14*%
%AMPS30*
1,1,1.940000,0.000000,0.000000*
%
%ADD30PS30*%
%AMPS32*
1,1,0.940000,0.000000,0.000000*
%
%ADD32PS32*%
%AMPS20*
1,1,6.590000,0.000000,0.000000*
%
%ADD20PS20*%
%AMPS11*
21,1,0.740000,1.840000,0.000000,0.000000,90.000000*
%
%ADD11PS11*%
%AMPS16*
21,1,0.590000,1.590000,0.000000,0.000000,90.000000*
%
%ADD16PS16*%
%AMPS17*
21,1,0.590000,1.590000,0.000000,0.000000,270.000000*
%
%ADD17PS17*%
%AMPS36*
21,1,1.140000,3.040000,0.000000,0.000000,0.000000*
%
%ADD36PS36*%
%AMPS39*
21,1,1.940000,3.740000,0.000000,0.000000,0.000000*
%
%ADD39PS39*%
%AMPS12*
21,1,1.140000,2.940000,0.000000,0.000000,90.000000*
%
%ADD12PS12*%
%AMPS27*
21,1,2.640000,7.640000,0.000000,0.000000,0.000000*
%
%ADD27PS27*%
%AMPS33*
21,1,2.640000,7.640000,0.000000,0.000000,180.000000*
%
%ADD33PS33*%
%AMPS26*
21,1,1.690000,3.640000,0.000000,0.000000,0.000000*
%
%ADD26PS26*%
%AMPS21*
1,1,2.970000,0.000000,0.000000*
%
%ADD21PS21*%
%AMPS38*
1,1,0.940000,0.000000,0.000000*
%
%ADD38PS38*%
%AMPS37*
21,1,0.200000,0.940000,0.000000,0.000000,0.000000*
1,1,0.940000,0.100000,0.000000*
1,1,0.940000,-0.100000,0.000000*
%
%ADD37PS37*%
%AMPS35*
1,1,0.500000,-0.220000,0.195000*
1,1,0.500000,0.220000,-0.195000*
1,1,0.500000,0.220000,0.195000*
1,1,0.500000,-0.220000,-0.195000*
21,1,0.940000,0.390000,0.000000,0.000000,0.000000*
21,1,0.440000,0.890000,0.000000,0.000000,0.000000*
%
%ADD35PS35*%
%AMPS23*
1,1,0.500000,0.220000,-0.195000*
1,1,0.500000,-0.220000,0.195000*
1,1,0.500000,-0.220000,-0.195000*
1,1,0.500000,0.220000,0.195000*
21,1,0.940000,0.390000,0.000000,0.000000,180.000000*
21,1,0.440000,0.890000,0.000000,0.000000,180.000000*
%
%ADD23PS23*%
%AMPS31*
1,1,0.500000,0.195000,0.220000*
1,1,0.500000,-0.195000,-0.220000*
1,1,0.500000,0.195000,-0.220000*
1,1,0.500000,-0.195000,0.220000*
21,1,0.940000,0.390000,0.000000,0.000000,270.000000*
21,1,0.440000,0.890000,0.000000,0.000000,270.000000*
%
%ADD31PS31*%
%AMPS15*
1,1,0.640000,0.250000,-2.250000*
1,1,0.640000,-0.250000,2.250000*
1,1,0.640000,-0.250000,-2.250000*
1,1,0.640000,0.250000,2.250000*
21,1,1.140000,4.500000,0.000000,0.000000,180.000000*
21,1,0.500000,5.140000,0.000000,0.000000,180.000000*
%
%ADD15PS15*%
%AMPS40*
1,1,0.580000,-0.230000,0.630000*
1,1,0.580000,0.230000,-0.630000*
1,1,0.580000,0.230000,0.630000*
1,1,0.580000,-0.230000,-0.630000*
21,1,1.040000,1.260000,0.000000,0.000000,0.000000*
21,1,0.460000,1.840000,0.000000,0.000000,0.000000*
%
%ADD40PS40*%
%AMPS24*
1,1,0.640000,0.250000,-1.000000*
1,1,0.640000,-0.250000,1.000000*
1,1,0.640000,-0.250000,-1.000000*
1,1,0.640000,0.250000,1.000000*
21,1,1.140000,2.000000,0.000000,0.000000,180.000000*
21,1,0.500000,2.640000,0.000000,0.000000,180.000000*
%
%ADD24PS24*%
%AMPS25*
1,1,0.640000,1.000000,0.250000*
1,1,0.640000,-1.000000,-0.250000*
1,1,0.640000,1.000000,-0.250000*
1,1,0.640000,-1.000000,0.250000*
21,1,1.140000,2.000000,0.000000,0.000000,270.000000*
21,1,0.500000,2.640000,0.000000,0.000000,270.000000*
%
%ADD25PS25*%
%AMPS18*
1,1,0.380000,-0.205000,0.330000*
1,1,0.380000,0.205000,-0.330000*
1,1,0.380000,0.205000,0.330000*
1,1,0.380000,-0.205000,-0.330000*
21,1,0.790000,0.660000,0.000000,0.000000,0.000000*
21,1,0.410000,1.040000,0.000000,0.000000,0.000000*
%
%ADD18PS18*%
%AMPS34*
1,1,0.380000,-0.330000,-0.205000*
1,1,0.380000,0.330000,0.205000*
1,1,0.380000,-0.330000,0.205000*
1,1,0.380000,0.330000,-0.205000*
21,1,0.790000,0.660000,0.000000,0.000000,90.000000*
21,1,0.410000,1.040000,0.000000,0.000000,90.000000*
%
%ADD34PS34*%
%AMPS10*
1,1,0.380000,0.205000,-0.330000*
1,1,0.380000,-0.205000,0.330000*
1,1,0.380000,-0.205000,-0.330000*
1,1,0.380000,0.205000,0.330000*
21,1,0.790000,0.660000,0.000000,0.000000,180.000000*
21,1,0.410000,1.040000,0.000000,0.000000,180.000000*
%
%ADD10PS10*%
%AMPS19*
1,1,0.380000,0.330000,0.205000*
1,1,0.380000,-0.330000,-0.205000*
1,1,0.380000,0.330000,-0.205000*
1,1,0.380000,-0.330000,0.205000*
21,1,0.790000,0.660000,0.000000,0.000000,270.000000*
21,1,0.410000,1.040000,0.000000,0.000000,270.000000*
%
%ADD19PS19*%
G01*
%LPD*%
G36*
X44500000Y-13250000D02*
X19250000Y-13250000D01*
X19250000Y-18250000D01*
X24250000Y-18250000D01*
X24250000Y-25500000D01*
X42000000Y-25500000D01*
X42000000Y-19750000D01*
X44500000Y-19750000D01*
X44500000Y-13250000D01*
D02*
G37*
G01*
%LPD*%
G75*
D10*
X47725000Y-14500000D03*
D10*
X46275000Y-14500000D03*
D11*
X37000000Y-6250000D03*
D11*
X37000000Y-7250000D03*
D12*
X31850000Y-8350000D03*
D11*
X37000000Y-5250000D03*
D12*
X31850000Y-4150000D03*
D13*
X3460000Y14460000D03*
D13*
X8540000Y14460000D03*
D13*
X8540000Y19540000D03*
D14*
X6000000Y17000000D03*
D13*
X3460000Y19540000D03*
D15*
X26200000Y-22000000D03*
D15*
X31800000Y-22000000D03*
D16*
X14700000Y-975000D03*
D16*
X14700000Y325000D03*
D17*
X10300000Y-325000D03*
D17*
X10300000Y975000D03*
D16*
X14700000Y-325000D03*
D17*
X10300000Y-975000D03*
D17*
X10300000Y325000D03*
D16*
X14700000Y975000D03*
D17*
X43300000Y-16025000D03*
D17*
X43300000Y-17325000D03*
D16*
X47700000Y-16675000D03*
D16*
X47700000Y-17975000D03*
D17*
X43300000Y-16675000D03*
D16*
X47700000Y-16025000D03*
D16*
X47700000Y-17325000D03*
D17*
X43300000Y-17975000D03*
D18*
X43775000Y-14500000D03*
D18*
X45225000Y-14500000D03*
D19*
X45250000Y28475000D03*
D19*
X45250000Y27025000D03*
D20*
X90500000Y28500000D03*
D21*
X52425000Y13160000D03*
D22*
X34985000Y24740000D03*
D22*
X47685000Y24740000D03*
D21*
X52425000Y-13810000D03*
D21*
X30075000Y-330000D03*
D23*
X16500000Y3500000D03*
D23*
X18000000Y3500000D03*
D24*
X48750000Y-21750000D03*
D24*
X45750000Y-21750000D03*
D25*
X12750000Y-2500000D03*
D25*
X12750000Y-5500000D03*
D26*
X40725000Y-17000000D03*
D26*
X34275000Y-17000000D03*
D27*
X40500000Y5500000D03*
D27*
X40500000Y19000000D03*
D28*
X16366000Y-22080000D03*
D29*
X21446000Y-17000000D03*
D28*
X16366000Y-11920000D03*
D29*
X21446000Y-19540000D03*
D15*
X34700000Y-22000000D03*
D15*
X40300000Y-22000000D03*
D24*
X18750000Y5750000D03*
D24*
X15750000Y5750000D03*
D30*
X5250000Y2730000D03*
D30*
X5250000Y5270000D03*
D23*
X16500000Y2250000D03*
D23*
X18000000Y2250000D03*
D10*
X13058338Y2416668D03*
D10*
X11608338Y2416668D03*
D25*
X51750000Y-16250000D03*
D25*
X51750000Y-19250000D03*
D31*
X10500000Y-4000000D03*
D31*
X10500000Y-2500000D03*
D32*
X46040000Y-8515000D03*
D32*
X43500000Y-11055000D03*
D32*
X40960000Y-8515000D03*
D20*
X3500000Y-28500000D03*
D33*
X71500000Y19000000D03*
D33*
X71500000Y5500000D03*
D10*
X17975000Y750000D03*
D10*
X16525000Y750000D03*
D20*
X3500000Y28500000D03*
D31*
X49500000Y-17750000D03*
D31*
X49500000Y-16250000D03*
D10*
X12975000Y4000000D03*
D10*
X11525000Y4000000D03*
D34*
X19500000Y-725000D03*
D34*
X19500000Y725000D03*
D23*
X45750000Y-19500000D03*
D23*
X47250000Y-19500000D03*
D26*
X32225000Y-17000000D03*
D26*
X25775000Y-17000000D03*
D20*
X90500000Y-28500000D03*
D35*
X18000000Y-750000D03*
D35*
X16500000Y-750000D03*
D36*
X59500000Y25000000D03*
D36*
X53500000Y25000000D03*
D37*
X61700000Y26250000D03*
D38*
X51300000Y26250000D03*
D39*
X51150000Y29650000D03*
D36*
X55500000Y25000000D03*
D36*
X57500000Y25000000D03*
D39*
X61850000Y29650000D03*
D21*
X83175000Y13160000D03*
D22*
X65735000Y24740000D03*
D22*
X78435000Y24740000D03*
D21*
X83175000Y-13810000D03*
D21*
X60825000Y-330000D03*
D40*
X24450000Y-26750000D03*
D40*
X21550000Y-26750000D03*
D30*
X5250000Y-5270000D03*
D30*
X5250000Y-2730000D03*
M02*
